<?xml version="1.0" encoding="UTF-8" standalone="no"?>
<svg
   class="svg-icon"
   style="overflow:hidden;fill:currentColor"
   viewBox="0 0 512 512"
   version="1.1"
   id="svg70"
   sodipodi:docname="back.svg"
   inkscape:version="1.1.1 (1:1.1+202109281949+c3084ef5ed)"
   width="512"
   height="512"
   xmlns:inkscape="http://www.inkscape.org/namespaces/inkscape"
   xmlns:sodipodi="http://sodipodi.sourceforge.net/DTD/sodipodi-0.dtd"
   xmlns="http://www.w3.org/2000/svg"
   xmlns:svg="http://www.w3.org/2000/svg">
  <defs
     id="defs74" />
  <sodipodi:namedview
     id="namedview72"
     pagecolor="#ffffff"
     bordercolor="#666666"
     borderopacity="1.0"
     inkscape:pageshadow="2"
     inkscape:pageopacity="0.0"
     inkscape:pagecheckerboard="0"
     showgrid="false"
     inkscape:zoom="1.3721317"
     inkscape:cx="259.45032"
     inkscape:cy="260.54351"
     inkscape:window-width="1848"
     inkscape:window-height="1016"
     inkscape:window-x="72"
     inkscape:window-y="27"
     inkscape:window-maximized="1"
     inkscape:current-layer="svg70"
     width="512px" />
  <path
     d="M 503.37452,344.65629 C 498.18286,318.64723 489.66791,293.2883 478.00536,269.10278 439.95647,193.01682 374.98856,153.08367 283.10163,149.30334 c -41.95883,-1.89245 -83.91408,3.7974 -123.47486,16.7453 v 0.50582 l -17.17432,-39.56044 c -2.48811,-4.58808 -6.32195,-8.45062 -11.07176,-11.15463 -3.44737,-1.82952 -7.3795,-2.75083 -11.36236,-2.66222 -3.66512,0.23656 -7.24168,1.14169 -10.51963,2.66222 -2.50109,1.00304 -4.91099,2.18703 -7.20681,3.54073 -1.02413,0.70202 -1.99502,1.46695 -2.905982,2.28952 L 12.235719,256.80337 c -2.048473,3.27884 -3.3624245,6.89908 -3.8649465,10.64883 -0.406787,2.88151 -0.219499,5.80737 0.552135,8.62557 0.761948,2.42722 2.0794955,4.67791 3.8649465,6.60228 1.664597,1.8568 3.523598,3.55986 5.550412,5.08482 1.870221,1.41878 3.907303,2.64208 6.073487,3.64722 1.411816,0.71319 2.889984,1.3101 4.417082,1.78369 0.633821,0.13863 1.209573,0.444 1.656403,0.87853 l 151.720952,37.03133 c 6.30488,1.5974 12.89327,2.03176 19.38285,1.27786 4.09094,-0.70799 8.09965,-1.76871 11.97262,-3.16803 3.05717,-1.08185 5.47378,-3.29574 6.65468,-6.09646 1.10468,-2.36464 1.94209,-4.82672 2.49914,-7.34769 0.39238,-2.35573 0.39238,-4.75237 0,-7.1081 -0.17431,-1.80398 -0.54423,-3.58758 -1.10427,-5.32442 -0.2965,-0.56041 -0.48337,-1.16412 -0.55214,-1.78369 l -17.72644,-39.56043 c 28.55768,-9.87812 58.35273,-16.44269 88.69034,-19.54063 27.85861,-2.53797 51.58106,-1.9434 71.16733,1.78369 19.08075,3.54008 37.46937,9.69695 54.54514,18.26276 14.34117,6.89991 27.74324,15.32642 39.9281,25.10464 9.78747,8.26412 18.60203,17.4457 26.29907,27.39413 5.29031,6.57666 10.14243,13.43989 14.52987,20.55226 2.03418,3.70047 3.60341,6.73539 4.70768,9.13138 z"
     fill="#467CFD"
     id="path68"
     style="fill:#00ebff;fill-opacity:1;stroke:#000078;stroke-width:5;stroke-miterlimit:4;stroke-dasharray:none;stroke-opacity:1"
     sodipodi:nodetypes="cccccccccccccccccccccccccccccccccccc" />
</svg>
