<?xml version="1.0" encoding="UTF-8" standalone="no"?>
<svg
   version="1.0"
   width="886.000000pt"
   height="1280.000000pt"
   viewBox="0 0 886.000000 1280.000000"
   preserveAspectRatio="xMidYMid meet"
   id="svg1606"
   sodipodi:docname="drop.svg"
   inkscape:version="1.1.1 (1:1.1+202109281949+c3084ef5ed)"
   xmlns:inkscape="http://www.inkscape.org/namespaces/inkscape"
   xmlns:sodipodi="http://sodipodi.sourceforge.net/DTD/sodipodi-0.dtd"
   xmlns="http://www.w3.org/2000/svg"
   xmlns:svg="http://www.w3.org/2000/svg">
  <defs
     id="defs1610" />
  <sodipodi:namedview
     id="namedview1608"
     pagecolor="#ffffff"
     bordercolor="#666666"
     borderopacity="1.0"
     inkscape:pageshadow="2"
     inkscape:pageopacity="0.0"
     inkscape:pagecheckerboard="0"
     inkscape:document-units="pt"
     showgrid="false"
     inkscape:zoom="0.3496864"
     inkscape:cx="164.43305"
     inkscape:cy="853.62199"
     inkscape:window-width="1848"
     inkscape:window-height="1016"
     inkscape:window-x="72"
     inkscape:window-y="27"
     inkscape:window-maximized="1"
     inkscape:current-layer="svg1606" />
  <metadata
     id="metadata1600">
Created by potrace 1.15, written by Peter Selinger 2001-2017
</metadata>
  <g
     transform="matrix(0.1,0,0,-0.1,-31.944909,1280)"
     fill="#000000"
     stroke="none"
     id="g1604"
     style="fill:#000080">
    <path
       d="M 5159,12639 C 4530,12088 3923,11469 3409,10855 2838,10171 2373,9507 1958,8780 1813,8526 1550,8008 1441,7760 481,5578 468,3584 1406,1949 c 151,-264 415,-642 519,-742 28,-27 100,-90 160,-141 C 3296,44 4882,-269 6245,243 c 888,333 1597,982 2041,1867 206,410 378,931 448,1350 40,239 46,306 52,565 24,944 -293,1806 -1064,2895 -141,198 -349,475 -709,941 -764,989 -1045,1407 -1318,1964 -312,635 -456,1194 -472,1825 -8,353 16,630 87,981 17,84 29,154 27,156 -3,2 -83,-65 -178,-148 z"
       id="path1602"
       style="fill:#000080" />
  </g>
</svg>
