<?xml version="1.0" encoding="UTF-8" standalone="no"?>
<!-- Created with Inkscape (http://www.inkscape.org/) -->

<svg
   width="512"
   height="512"
   viewBox="0 0 135.46666 135.46667"
   version="1.1"
   id="svg257"
   xmlns="http://www.w3.org/2000/svg"
   xmlns:svg="http://www.w3.org/2000/svg">
  <defs
     id="defs254" />
  <g
     id="layer1">
    <path
       d="M 8.3418861,36.261276 H 27.238453 L 73.003575,3.9226029 c 2.657334,-2.1355722 6.200436,-1.220327 8.267248,1.5254087 2.066813,2.7457369 1.181037,6.7118004 -1.476289,8.5422914 l -31.88796,22.270973 h 78.538856 c 3.24785,0 5.90517,2.745735 5.90517,6.101637 v 79.321277 c 0,3.3559 -2.65732,6.10163 -5.90517,6.10163 H 8.3418861 c -3.2478472,0 -5.9051767,-2.74573 -5.9051767,-6.10163 V 42.362913 c 0,-3.355902 2.6573295,-6.101637 5.9051767,-6.101637 z M 14.247063,115.58255 H 120.54026 V 48.464549 H 14.247063 Z"
       fill="#2F3CF4"
       id="path49"
       style="overflow:hidden;fill:#aa4400;stroke-width:0.140687" />
    <path
       d="m 43.772949,103.09327 c -11.515096,0 -20.66812,-9.457542 -20.66812,-21.355737 0,-11.898189 9.153024,-21.355726 20.66812,-21.355726 11.515095,0 20.668121,9.457537 20.668121,21.355726 0,11.898195 -9.153026,21.355737 -20.668121,21.355737 z m 0,-30.50819 c -5.019399,0 -8.857766,3.966066 -8.857766,9.152453 0,5.186393 3.838367,9.152459 8.857766,9.152459 5.019401,0 8.857765,-3.966066 8.857765,-9.152459 0,-5.186387 -3.838364,-9.152453 -8.857765,-9.152453 z m 32.478474,3.050822 h 17.715534 c 3.247851,0 5.90517,-2.745737 5.90517,-6.101637 0,-3.355903 -2.657319,-6.101639 -5.90517,-6.101639 H 76.251423 c -3.247848,0 -5.905178,2.745736 -5.905178,6.101639 0,3.3559 2.65733,6.101637 5.905178,6.101637 m 0,24.406548 H 105.7773 c 3.24785,0 5.90518,-2.745742 5.90518,-6.101642 0,-3.355901 -2.65733,-6.101638 -5.90518,-6.101638 H 76.251423 c -3.247848,0 -5.905178,2.745737 -5.905178,6.101638 0,3.3559 2.65733,6.101642 5.905178,6.101642"
       fill="#2f3cf4"
       id="path51"
       style="overflow:hidden;fill:#aa4400;stroke-width:0.140687" />
  </g>
</svg>
