<svg class="svg-icon" style="width: 1em; height: 1em;vertical-align: middle;fill: currentColor;overflow: hidden;" viewBox="0 0 1024 1024" version="1.1" xmlns="http://www.w3.org/2000/svg"><path d="M85.333333 277.333333h136.533334L552.533333 51.2c19.2-14.933333 44.8-8.533333 59.733334 10.666667s8.533333 46.933333-10.666667 59.733333L371.2 277.333333H938.666667c23.466667 0 42.666667 19.2 42.666666 42.666667v554.666667c0 23.466667-19.2 42.666667-42.666666 42.666666H85.333333c-23.466667 0-42.666667-19.2-42.666666-42.666666V320c0-23.466667 19.2-42.666667 42.666666-42.666667z m42.666667 554.666667h768V362.666667H128v469.333333z" fill="#2F3CF4" /><path d="M341.333333 746.666667c-83.2 0-149.333333-66.133333-149.333333-149.333334s66.133333-149.333333 149.333333-149.333333 149.333333 66.133333 149.333334 149.333333-66.133333 149.333333-149.333334 149.333334z m0-213.333334c-36.266667 0-64 27.733333-64 64s27.733333 64 64 64 64-27.733333 64-64-27.733333-64-64-64zM576 554.666667h128c23.466667 0 42.666667-19.2 42.666667-42.666667s-19.2-42.666667-42.666667-42.666667h-128c-23.466667 0-42.666667 19.2-42.666667 42.666667s19.2 42.666667 42.666667 42.666667M576 725.333333h213.333333c23.466667 0 42.666667-19.2 42.666667-42.666666s-19.2-42.666667-42.666667-42.666667H576c-23.466667 0-42.666667 19.2-42.666667 42.666667s19.2 42.666667 42.666667 42.666666" fill="#2F3CF4" /></svg>