<?xml version="1.0" encoding="utf-8"?>
<!-- Svg Vector Icons : http://www.onlinewebfonts.com/icon -->
<!DOCTYPE svg PUBLIC "-//W3C//DTD SVG 1.1//EN" "http://www.w3.org/Graphics/SVG/1.1/DTD/svg11.dtd">
<svg version="1.1" xmlns="http://www.w3.org/2000/svg" xmlns:xlink="http://www.w3.org/1999/xlink" x="0px" y="0px" viewBox="0 0 256 256" enable-background="new 0 0 256 256" xml:space="preserve">
<metadata> Svg Vector Icons : http://www.onlinewebfonts.com/icon </metadata>
<g><g><path fill="#000000" d="M243.4,113L134.2,16.1c0,0,0,0,0,0c0,0,0,0,0,0l-0.1-0.1c-3.4-3.4-9-3.4-12.5,0c-0.2,0.2-0.3,0.6-0.6,0.8L12.4,113.1c0,0,0,0.1-0.1,0.1c-0.6,0.7-1.2,1.5-1.6,2.4c-0.2,0.4-0.3,0.8-0.4,1.3c-0.1,0.4-0.2,0.8-0.2,1.2c-0.1,0.9-0.1,1.9,0,2.8c0,0.1,0,0.1,0,0.2c0.3,1.6,1,3.2,2.2,4.5c1.3,1.3,2.9,1.9,4.5,2.2c0.1,0,0.1,0,0.2,0c0.7,0.1,1.4,0.2,2.2,0.2l15.9,0c8.5,0.4,9.8,2.4,10,11.8L45.1,128l-3.5,0h3.7l0.1,97.7c0.4,9.4,8.1,16.9,17.5,16.9h8.8v0.1l93.7,0c0.2,0,0.5,0.1,0.7,0.1l17.8,0v0h8.8c9.7,0,17.6-7.9,17.6-17.6v-9.4h0.1l-0.1-87.8c0-4.9-4-8.8-8.8-8.8c-4.9,0-8.8,3.9-8.8,8.8l0,80.4l0,5.2c0-0.9,0-2,0-3.1l0,12.8c0,0-0.1-0.1-0.1-0.1l0.1-9.7c-0.1,4.3-0.5,7-1.7,8.7c-0.9-0.4-1.8-0.6-2.8-0.6c-0.4,0-0.7,0.2-1.1,0.2c-3.7-19.8-16.9-36.3-34.8-44.4c9.6-7.5,15.9-19.1,15.9-32.3c0-22.6-18.3-40.9-40.9-40.9S86.6,122.4,86.6,145c0,13.1,6.2,24.8,15.8,32.2c-18.7,8.4-32.2,25.8-35.3,46.7c-2.6-1-3.6-3-4-6.9l0-79.6h0v-9.4c0-9.7-7.9-17.6-17.6-17.6h-5.5L128,34.8l103,90.7c3.4,3.4,9,3.4,12.5,0C246.9,122,246.9,116.4,243.4,113z M100.2,144.9c0-15,12.2-27.2,27.2-27.2c15,0,27.2,12.2,27.2,27.2c0,15-12.2,27.2-27.2,27.2C112.4,172.1,100.2,159.9,100.2,144.9z M123.6,185.7c1.3,0.1,2.6,0.2,3.9,0.2c1.3,0,2.6-0.1,3.9-0.2c21.7,1.8,39.3,18.1,43,39.3l-93.6,0C84.4,203.8,101.9,187.4,123.6,185.7z M63.1,224.9l3.9,0v0L63.1,224.9L63.1,224.9z M45.2,139.7l0,6.3C45.3,143.6,45.3,141.6,45.2,139.7z"/></g></g>
</svg>