<?xml version="1.0" encoding="utf-8"?>
<!-- Svg Vector Icons : http://www.onlinewebfonts.com/icon -->
<!DOCTYPE svg PUBLIC "-//W3C//DTD SVG 1.1//EN" "http://www.w3.org/Graphics/SVG/1.1/DTD/svg11.dtd">
<svg version="1.1" xmlns="http://www.w3.org/2000/svg" xmlns:xlink="http://www.w3.org/1999/xlink" x="0px" y="0px" viewBox="0 0 256 256" enable-background="new 0 0 256 256" xml:space="preserve">
<metadata> Svg Vector Icons : http://www.onlinewebfonts.com/icon </metadata>
<g><g><g><path fill="#000000" d="M194,22.4c-8.2,2.6-13.2,9.3-13.3,17.9c-0.1,7.3,1.4,9.7,14.2,22.6c6,6.1,11.7,11.6,12.6,12.3c1.1,0.8,2.8,1.3,4.2,1.3c2.4,0,2.9-0.4,14.8-12.2c6.7-6.8,12.9-13.3,13.7-14.7c4.1-6.9,2.5-17.4-3.6-22.9c-3.9-3.5-7.4-4.8-13-4.8c-4.4,0-5.3,0.2-8.4,1.9l-3.5,1.9l-3.8-1.8C203.4,21.6,198.1,21.1,194,22.4z M204.7,32.5c0.9,0.7,2.8,2.9,4.1,5c1.4,2.1,2.6,3.8,2.8,3.8c0.2,0,1.4-1.8,2.8-3.9c2.9-4.5,5.7-6.6,9-6.6c4.8,0,8.5,2.8,9.7,7.4c1.3,4.7,0.4,6-11.1,17.5l-10.5,10.4l-9.7-9.5c-9.7-9.5-12.5-13-12.5-15.8c0-1.8,1.5-5.6,3-7.2C195.1,30.7,201.5,30.1,204.7,32.5z"/><path fill="#000000" d="M126,26.1c-3,1.5-114.8,87.1-115.5,88.3c-0.9,1.8-0.7,3.4,0.7,5.2c1.1,1.4,1.7,1.7,3.7,1.5c2-0.2,9.2-5.4,57.2-42c30.2-23,55.3-41.8,55.8-41.8s25.6,18.8,55.8,41.8c48.1,36.6,55.1,41.8,57.2,42c2,0.2,2.6-0.1,3.7-1.5c1.4-1.8,1.6-3.4,0.7-5.2c-0.6-1.2-112.6-86.8-115.5-88.3C127.9,25.1,128.1,25.1,126,26.1z"/><path fill="#000000" d="M78.9,82.9l-48.8,35.5l0.4,25.2c0.2,13.8,0.4,40,0.4,57.9v32.8H128h97.1v-35.8c0-19.7,0.2-45.8,0.4-58l0.4-22.1l-48.7-35.4c-26.8-19.4-48.9-35.4-49.1-35.5C127.9,47.5,105.7,63.4,78.9,82.9z M172.5,91.8l43.4,31.5V147c0,13-0.2,35.9-0.4,50.8l-0.4,27.2H128H40.9l-0.4-25c-0.2-13.7-0.4-36.6-0.4-50.8v-25.9l43.8-31.8C108,74,128,59.8,128.4,59.9C128.8,60.1,148.7,74.4,172.5,91.8z"/><path fill="#000000" d="M103.8,131.6c-9.1,3.3-14.9,10.1-16.4,19.6c-0.7,4.7,0.5,11.2,2.9,15.4c1.8,3.1,31.5,33.4,34.2,34.9c2.1,1.1,5,1.1,7.1,0c0.9-0.5,8.7-8.1,17.4-16.8c17.1-17.2,18.3-18.9,19.6-26.5c2.4-15.1-10-28.6-25.2-27.6c-5,0.3-9.2,1.8-12.6,4.4c-2.5,1.9-2.9,1.9-5.4,0C119.6,130.6,110.5,129.2,103.8,131.6z M115.6,140.2c3.6,1,6.5,3.5,9.3,8c1.5,2.3,2.9,4.3,3.1,4.3s1.5-2,3.1-4.3c2.8-4.5,5.7-7,9.3-8c10.8-3.1,21.3,6.3,19.1,17c-0.4,1.8-1.5,4.5-2.5,5.9c-1,1.4-7.9,8.7-15.4,16.1L128,192.8l-13.6-13.5c-7.4-7.4-14.4-14.7-15.4-16.2c-2.7-3.8-3.4-8.2-2.2-12.4C99.2,142.5,107.5,137.9,115.6,140.2z"/></g></g></g>
</svg>