<?xml version="1.0" encoding="UTF-8" standalone="no"?>
<svg
   class="svg-icon"
   style="overflow:hidden;fill:currentColor"
   viewBox="0 0 512 512"
   version="1.1"
   id="svg70"
   sodipodi:docname="refresh.svg"
   inkscape:version="1.1.1 (1:1.1+202109281949+c3084ef5ed)"
   width="512"
   height="512"
   xmlns:inkscape="http://www.inkscape.org/namespaces/inkscape"
   xmlns:sodipodi="http://sodipodi.sourceforge.net/DTD/sodipodi-0.dtd"
   xmlns="http://www.w3.org/2000/svg"
   xmlns:svg="http://www.w3.org/2000/svg">
  <defs
     id="defs74" />
  <sodipodi:namedview
     id="namedview72"
     pagecolor="#ffffff"
     bordercolor="#666666"
     borderopacity="1.0"
     inkscape:pageshadow="2"
     inkscape:pageopacity="0.0"
     inkscape:pagecheckerboard="0"
     showgrid="false"
     inkscape:zoom="1.3721317"
     inkscape:cx="259.45032"
     inkscape:cy="260.54351"
     inkscape:window-width="1848"
     inkscape:window-height="1016"
     inkscape:window-x="72"
     inkscape:window-y="27"
     inkscape:window-maximized="1"
     inkscape:current-layer="svg70"
     width="512px" />
  <path
     d="m 509.88049,278.29792 a 367.83828,336.98251 0 0 1 -25.36916,75.55351 Q 427.43799,467.98037 289.6076,473.65087 a 320.20936,293.3489 0 0 1 -123.47486,-16.7453 v -0.50582 l -17.17432,39.56044 a 30.105899,27.580493 0 0 1 -11.07176,11.15463 21.620452,19.806841 0 0 1 -11.36236,2.66222 27.5777,25.264371 0 0 1 -10.51963,-2.66222 51.406693,47.094491 0 0 1 -7.20681,-3.54073 28.246075,25.876679 0 0 1 -2.90598,-2.28952 L 18.74169,366.15084 a 31.006751,28.405778 0 0 1 -3.864946,-10.64883 25.3401,23.214469 0 0 1 0.552135,-8.62557 19.411911,17.783561 0 0 1 3.864946,-6.60228 40.189631,36.818361 0 0 1 5.550412,-5.08482 32.663156,29.923238 0 0 1 6.073487,-3.64722 27.228983,24.944906 0 0 1 4.417082,-1.78369 3.341871,3.0615413 0 0 0 1.656403,-0.87853 L 188.71216,291.84857 a 49.401571,45.257566 0 0 1 19.38285,-1.27786 66.052807,60.512029 0 0 1 11.97262,3.16803 11.623899,10.648839 0 0 1 6.65468,6.09646 41.119543,37.670268 0 0 1 2.49914,7.34769 25.717876,23.560556 0 0 1 0,7.1081 29.786241,27.28765 0 0 1 -1.10427,5.32442 5.8119492,5.3244193 0 0 0 -0.55214,1.78369 l -17.72644,39.56043 a 365.8041,335.11897 0 0 0 88.69034,19.54063 q 41.78792,3.80695 71.16733,-1.78369 a 193.56698,177.32979 0 0 0 54.54514,-18.26276 205.85925,188.59094 0 0 0 39.9281,-25.10464 190.39946,174.42798 0 0 0 26.29907,-27.39413 221.58058,202.9935 0 0 0 14.52987,-20.55226 c 2.03418,-3.70047 3.60341,-6.73539 4.70768,-9.13138 z M 2.1195149,226.54456 A 370.22118,339.16553 0 0 1 36.439077,139.27732 Q 100.16711,34.279771 238.54963,36.80887 a 308.73076,282.83317 0 0 1 111.85096,19.780219 l 18.27859,-39.054617 a 40.828945,37.404047 0 0 1 8.31108,-8.8651588 20.341823,18.635469 0 0 1 8.31109,-4.073181 22.840961,20.924969 0 0 1 8.02049,-0.2662213 25.688817,23.533935 0 0 1 7.20682,1.7836808 55.562236,50.90145 0 0 1 6.10255,3.0349192 26.764028,24.518952 0 0 1 3.60341,2.2895001 l 1.6564,1.51746 83.60489,136.970689 a 44.257995,40.545455 0 0 1 3.31281,11.23453 25.369159,23.241091 0 0 1 -0.55213,8.62556 17.435848,15.973258 0 0 1 -4.15555,6.60228 37.428955,34.289262 0 0 1 -5.81195,4.8186 49.750288,45.577031 0 0 1 -6.10254,3.30114 l -4.41708,2.02328 a 3.8358866,3.5141168 0 0 1 -1.65641,0.50582 L 323.28785,220.4481 a 60.473332,55.400584 0 0 1 -24.90421,-0.50582 c -6.24784,-1.67719 -10.34526,-3.96669 -12.17603,-6.84188 a 22.230707,20.365905 0 0 1 -2.90597,-10.40924 52.510964,48.106131 0 0 1 0.69743,-8.62556 13.164066,12.059811 0 0 1 1.65641,-4.07318 l 18.68541,-39.05462 a 358.36481,328.30371 0 0 0 -88.60316,-21.29767 q -42.10758,-4.55238 -71.16733,0 A 188.01657,172.24497 0 0 0 89.879956,146.38542 199.00115,182.30813 0 0 0 49.196307,170.74464 206.96352,189.60258 0 0 0 22.054501,197.63296 220.56348,202.06172 0 0 0 6.5365967,217.919 61.02547,55.906406 0 0 0 2.1195149,226.54456 Z m 0,0"
     fill="#467CFD"
     id="path68"
     style="fill:#00ebff;stroke-width:5;fill-opacity:1;stroke:#000078;stroke-opacity:1;stroke-miterlimit:4;stroke-dasharray:none" />
</svg>
