<?xml version="1.0" encoding="UTF-8" standalone="no"?>
<svg
   version="1.0"
   width="512"
   height="512"
   viewBox="0 0 384 384.00001"
   preserveAspectRatio="xMidYMid meet"
   id="svg878"
   sodipodi:docname="admin1.svg"
   inkscape:version="1.1.1 (1:1.1+202109281949+c3084ef5ed)"
   xmlns:inkscape="http://www.inkscape.org/namespaces/inkscape"
   xmlns:sodipodi="http://sodipodi.sourceforge.net/DTD/sodipodi-0.dtd"
   xmlns="http://www.w3.org/2000/svg"
   xmlns:svg="http://www.w3.org/2000/svg">
  <defs
     id="defs882" />
  <sodipodi:namedview
     id="namedview880"
     pagecolor="#ffffff"
     bordercolor="#666666"
     borderopacity="1.0"
     inkscape:pageshadow="2"
     inkscape:pageopacity="0.0"
     inkscape:pagecheckerboard="0"
     inkscape:document-units="pt"
     showgrid="false"
     units="px"
     inkscape:zoom="1"
     inkscape:cx="232"
     inkscape:cy="345.5"
     inkscape:window-width="1848"
     inkscape:window-height="1016"
     inkscape:window-x="72"
     inkscape:window-y="27"
     inkscape:window-maximized="1"
     inkscape:current-layer="svg878" />
  <metadata
     id="metadata870">
Created by potrace 1.15, written by Peter Selinger 2001-2017
</metadata>
  <path
     d="m 178.05011,2.7844918 c -10.62348,1.8125385 -13.94647,4.2796048 -16.61493,12.2849832 -1.4601,4.380301 -1.81254,13.644387 -1.05732,26.080415 1.00697,15.205184 0.95662,15.255533 -12.43602,18.175734 -3.32299,0.755224 -7.6026,2.366369 -14.85275,5.639008 -9.96896,4.531347 -16.2625,6.998413 -17.67225,6.998413 -0.40279,0 -3.37334,-3.121594 -6.64598,-6.948064 C 89.135036,42.056159 80.122691,38.481431 67.585967,48.651786 65.974821,50.01119 60.939992,55.146715 56.408646,60.080848 46.338987,71.107124 44.476101,74.228718 44.476101,80.220165 c 0,7.048761 3.776122,12.587073 17.823295,26.130765 l 8.55921,8.25712 -3.020898,4.73274 c -5.689357,8.7606 -11.529759,21.85116 -15.406577,34.79067 -0.855921,2.76916 -1.812539,4.78309 -2.618111,5.53831 l -1.258708,1.15801 -15.406577,0.0503 c -12.738118,0 -15.859712,0.15105 -17.823296,0.80557 -7.4011986,2.46707 -10.6738376,6.79702 -11.9828932,15.96041 -0.7552243,5.03483 -0.352438,25.72798 0.5538312,29.5041 1.5104488,6.44458 4.6320429,10.62349 9.566176,12.93951 5.135525,2.41672 7.199805,2.66846 23.563,2.66846 h 15.255533 l 1.208359,4.17891 c 3.071246,10.62349 10.3214,25.92937 15.557622,32.92778 5.034829,6.64598 5.538312,5.48797 -8.508861,19.2834 -16.061105,15.80936 -17.168768,17.31981 -17.168768,24.41892 0,3.82647 0.151045,4.53135 1.510449,6.89772 2.567763,4.43065 7.602592,10.42209 14.298915,16.86668 10.069658,9.81791 15.305881,13.09055 20.6428,13.0402 6.746671,0 11.932545,-3.47403 22.354638,-14.90309 2.8195,-3.07125 7.85433,-8.45851 11.22767,-11.98289 l 6.14249,-6.44459 4.98448,2.46707 c 8.91165,4.481 20.49176,8.55921 32.72639,11.6808 1.10766,0.30209 2.56776,0.90627 3.17194,1.40976 l 1.10766,0.85592 -0.55383,11.17732 c -1.4601,29.65514 -0.55383,36.7039 5.18588,41.78908 3.12159,2.76916 7.4012,4.07821 15.25553,4.73274 6.89772,0.55383 22.85812,-0.1007 27.74191,-1.15801 8.45851,-1.81254 13.19125,-8.91165 14.14787,-21.14628 0.45313,-5.18588 0.0504,-16.41355 -1.00697,-29.00062 -0.50348,-6.14249 -0.45313,-6.79702 0.35244,-7.70329 0.50348,-0.55383 3.72578,-1.86289 7.45155,-3.0209 10.27105,-3.17194 15.50727,-5.23622 24.41892,-9.56617 l 8.30747,-4.02786 2.26567,2.66845 c 5.28657,6.0418 17.77295,19.53514 20.99524,22.60639 9.11304,8.71025 17.26946,10.97593 24.9224,6.94806 3.1216,-1.66149 14.34927,-11.47941 19.98828,-17.47086 10.01931,-10.62348 11.52976,-17.67225 5.79005,-26.78529 -2.06428,-3.27264 -11.47941,-12.63742 -20.39106,-20.34071 -3.52438,-3.07124 -6.64597,-6.14249 -6.99841,-6.94806 -0.80557,-1.96358 -0.30209,-3.42368 3.52438,-9.96896 5.63901,-9.76757 8.962,-16.86668 11.83185,-25.57694 0.80557,-2.26567 1.96358,-4.83343 2.61811,-5.58866 2.8195,-3.37333 7.75364,-4.02786 21.59942,-2.8195 15.45692,1.30906 21.54907,0.40279 26.23146,-3.87682 4.32995,-3.97751 5.8404,-10.97593 5.8404,-27.33912 -0.0503,-11.27802 -0.75523,-16.56459 -2.9202,-21.34768 -0.70488,-1.66149 -1.91324,-3.52438 -2.61811,-4.22925 -2.06428,-2.01394 -6.74667,-3.87682 -11.58011,-4.73274 -4.3803,-0.75523 -5.63901,-0.75523 -25.52658,0.10069 -9.36479,0.40279 -10.4221,-0.45313 -12.88917,-10.3214 -1.71184,-6.84736 -1.86288,-7.09911 -7.90468,-18.62886 -2.21532,-4.27961 -4.481,-9.21374 -4.93413,-10.92558 -1.40975,-5.18588 -1.05732,-5.79006 8.40816,-14.44996 8.91165,-8.257127 13.39265,-13.493349 15.75902,-18.427482 1.3594,-2.869852 1.5608,-3.82647 1.5608,-7.602592 0,-6.645974 -1.6615,-9.616523 -11.73116,-20.642799 C 314.34294,46.335714 310.31508,43.51621 303.36701,43.51621 c -3.37333,0 -4.1789,0.201393 -7.55224,1.862887 -5.18587,2.618111 -9.71722,6.696323 -18.27643,16.262498 -4.02786,4.531346 -8.10608,8.810951 -8.962,9.465479 -3.47403,2.567763 -5.58866,2.215325 -13.19125,-2.36637 -3.17194,-1.862887 -6.64597,-3.423684 -10.47244,-4.632043 -3.1216,-0.956617 -7.95503,-2.517414 -10.67384,-3.373335 -5.53831,-1.76219 -9.51583,-3.927167 -11.02628,-5.991447 -0.95661,-1.258707 -0.95661,-1.661494 -0.35244,-12.486376 0.70488,-11.731152 0.45314,-19.1827 -0.70487,-23.512653 C 219.78885,9.8332527 215.20715,5.3019064 207.10108,3.7411093 203.5767,3.0865815 180.66823,2.3313571 178.05011,2.7844918 Z M 201.46207,138.72488 c 16.66529,2.71881 31.26629,12.93951 38.11366,26.63425 3.77612,7.55224 5.13552,13.69474 5.13552,23.41196 0.0504,11.02627 -1.66149,17.82329 -6.69632,26.3825 -7.04876,12.03324 -20.44141,20.84419 -36.55286,24.01614 -5.08518,1.00696 -18.98131,0.90627 -24.31822,-0.2014 -19.58549,-4.02786 -34.58928,-16.36319 -39.87585,-32.87743 -2.16498,-6.84737 -2.66846,-10.92558 -2.36637,-19.83723 0.20139,-6.44458 0.45313,-8.55921 1.5608,-12.23463 4.88378,-16.3632 17.06807,-28.29574 34.28718,-33.48162 10.01931,-3.07124 19.53514,-3.62508 30.71246,-1.81254 z"
     id="path872"
     style="fill:#008080;stroke:none;stroke-width:0.0503483" />
</svg>
