<?xml version="1.0" encoding="UTF-8"?>
<svg width="560" height="125" version="1.1" viewBox="0 0 560 125" xmlns="http://www.w3.org/2000/svg">
 <path d="m15 116h321" stroke="#000000" stroke-width="2.8"/>
 <g transform="matrix(0 1.3 -1.5 0 349 10)" fill="#cccccc" stroke="#000000" stroke-width="2">
  <path d="m3.1 8 76 .34"/>
  <rect x="12" y="4" width="24" height="8"/>
 </g>
 <g fill="none" stroke="#000000" stroke-width="2">
  <g transform="matrix(1.5 0 0 1.3 29 14)">
   <path d="m-8.9 27c5.6.12 11 .071 17 .041 0-7.1 8-7.1 8 0 0-7.1 8-7.1 8 0 0-7.1 8-7.1 8 0 0-7.1 8-7.1 8 0l7.4.036"/>
  </g>
  <g transform="matrix(-1.3 0 0 -1.5 22 63)">
   <circle cx="8" cy="8" r="3" fill="#ffffff"/>
  </g>
  <g transform="matrix(-1.3 0 0 -1.5 23 127)">
   <circle cx="8" cy="8" r="3" fill="#ffffff"/>
  </g>
 </g>
 <g fill="#000000" stroke-width="5">
  <circle cx="233" cy="15" r="5.3"/>
  <circle cx="171" cy="15" r="5.3"/>
  <circle cx="231" cy="90" r="5.3"/>
  <circle cx="171" cy="49" r="5.3"/>
  <circle cx="171" cy="90" r="5.3"/>
  <circle cx="98" cy="50" r="5.3"/>
  <circle cx="26" cy="51" r="5.3"/>
  <circle cx="26" cy="51" r="5.3"/>
  <circle cx="336" cy="91" r="5.3"/>
  <circle cx="337" cy="114" r="5.3"/>
  <circle cx="336" cy="15" r="5.3"/>
 </g>
 <g transform="translate(117 -27)" fill="none" stroke="#000000" stroke-width="1px">
  <path d="m226 59 11-7.4"/>
  <path d="m225 80 11 6"/>
  <path d="m236 52 .02 34"/>
 </g>
 <text x="292.99683" y="42.542953" fill="#000000" font-family="sans-serif" font-size="27px" style="line-height:1.25" xml:space="preserve"><tspan x="292.99683" y="42.542953">Rg<tspan font-size="19px"/></tspan></text>
 <text x="248.57904" y="77.407387" fill="#000000" font-family="sans-serif" font-size="27px" style="line-height:1.25" xml:space="preserve"><tspan x="248.57904" y="77.407387">R<tspan font-size="19px">2</tspan></tspan></text>
 <g transform="rotate(-90 202 47)" stroke="#000000" stroke-width="2.8">
  <path d="m169 52h-22"/>
  <path d="m169 60h-22"/>
 </g>
 <g transform="rotate(90 140 -3.2)" stroke="#000000" stroke-width="2.8">
  <path d="m169 52h-22"/>
  <path d="m169 60h-22"/>
 </g>
 <text x="48.457207" y="72.91481" fill="#000000" font-family="sans-serif" font-size="27px" style="line-height:1.25" xml:space="preserve"><tspan x="48.457207" y="72.91481">L<tspan font-size="19px">1</tspan></tspan></text>
 <g fill="#ffffff" stroke="#000000" stroke-width="2">
  <g transform="matrix(-1.3 0 0 -1.5 163 62)">
   <rect x="12" y="4" width="24" height="8" fill="#ffffff"/>
  </g>
  <g transform="matrix(-1.3 0 0 -1.5 133 102)">
   <rect x="12" y="4" width="24" height="8" fill="#ffffff"/>
  </g>
  <g transform="matrix(1.3 0 0 1.5 231 78)">
   <rect x="12" y="4.5" width="24" height="8" fill="#ffffff"/>
  </g>
 </g>
 <g fill="#000000" font-family="sans-serif" font-size="27px">
  <text x="117.40556" y="84.307251" style="line-height:1.25" xml:space="preserve"><tspan x="117.40556" y="84.307251">R<tspan font-size="19px">1</tspan></tspan></text>
  <text x="112.28597" y="39.638988" style="line-height:1.25" xml:space="preserve"><tspan x="112.28597" y="39.638988">RL<tspan font-size="19px">1</tspan></tspan></text>
  <text x="198.8606" y="74.293365" style="line-height:1.25" xml:space="preserve"><tspan x="198.8606" y="74.293365"><tspan font-size="32px">c</tspan><tspan font-size="16px">2</tspan></tspan></text>
  <text x="44.996048" y="35.982117" style="line-height:1.25" xml:space="preserve"><tspan x="44.996048" y="35.982117"><tspan font-size="32px">c</tspan><tspan font-size="16px">1</tspan></tspan></text>
 </g>
 <g fill="none" stroke="#000000" stroke-width="2.5">
  <path d="m27 51 .13 39 57-.17"/>
  <path d="m27 50-.19-36 49-.32"/>
  <path d="m87 15s198-.26 252-.094"/>
  <path d="m205 90-30-.019"/>
  <path d="m245 91-30-.019"/>
  <path d="m336 91-58-.019"/>
  <path d="m171 18 .21 72"/>
  <path d="m169 50-21-.017"/>
  <path d="m171 90-54-.017"/>
  <path d="m115 50-17 .3"/>
 </g>
</svg>
