<?xml version="1.0" encoding="UTF-8" standalone="no"?>
<svg
   version="1.1"
   viewBox="0 0 240 144"
   id="svg287"
   sodipodi:docname="LCR.svg"
   inkscape:version="1.2 (1:1.2.1+202207142221+cd75a1ee6d)"
   xmlns:inkscape="http://www.inkscape.org/namespaces/inkscape"
   xmlns:sodipodi="http://sodipodi.sourceforge.net/DTD/sodipodi-0.dtd"
   xmlns="http://www.w3.org/2000/svg"
   xmlns:svg="http://www.w3.org/2000/svg">
  <defs
     id="defs291" />
  <sodipodi:namedview
     id="namedview289"
     pagecolor="#ffffff"
     bordercolor="#666666"
     borderopacity="1.0"
     inkscape:showpageshadow="2"
     inkscape:pageopacity="0.0"
     inkscape:pagecheckerboard="0"
     inkscape:deskcolor="#d1d1d1"
     showgrid="false"
     inkscape:zoom="5.6458333"
     inkscape:cx="120.08856"
     inkscape:cy="58.00738"
     inkscape:window-width="1848"
     inkscape:window-height="1016"
     inkscape:window-x="72"
     inkscape:window-y="27"
     inkscape:window-maximized="1"
     inkscape:current-layer="svg287" />
  <path
     d="m 123.86078,27.893876 94.4347,0"
     id="path179"
     style="stroke:#000000;stroke-width:2.83881"
     sodipodi:nodetypes="cc" />
  <path
     d="m 24.576529,123.74218 157.433801,0"
     id="path181"
     style="stroke:#000000;stroke-width:2.83881"
     sodipodi:nodetypes="cc" />
  <path
     d="m 188.73764,123.74218 29.55784,0"
     id="path183"
     style="stroke:#000000;stroke-width:2.83881"
     sodipodi:nodetypes="cc" />
  <g
     transform="matrix(0,1.3452705,-1.4976298,0,198.17948,39.686938)"
     id="g197"
     style="font-family:sans-serif;fill:none;stroke:#000000;stroke-width:2">
    <path
       d="M -6.5258114,8 60.094107,8.3395307"
       id="path193"
       sodipodi:nodetypes="cc" />
    <rect
       x="12"
       y="4"
       width="24"
       height="8"
       fill="#ffffff"
       id="rect195" />
  </g>
  <text
     x="174.13144"
     y="77.165154"
     fill="#0000f0"
     font="italic  bold 12pt serif"
     stroke="none"
     text-anchor="middle"
     id="text209"
     style="font-size:25.5971px;font-family:sans-serif;stroke-width:4.26618; cursor:pointer;"
     transform="scale(0.94776919,1.0551092)" onclick="klik(this)">R</text>
  <g
     transform="matrix(1.4976298,0,0,1.3452705,24.484957,17.229289)"
     id="g237"
     style="font-family:sans-serif;fill:none;stroke:#000000;stroke-width:2">
    <path
       d="m 0,8 h 8 c 0,-7.11110798 8,-7.11110798 8,0 0,-7.11110798 8,-7.11110798 8,0 0,-7.11110798 8,-7.11110798 8,0 0,-7.11110798 8,-7.11110798 8,0 l 19.057898,0.035772"
       id="path235"
       sodipodi:nodetypes="ccccccc" />
  </g>
  <text
     x="61.97028"
     y="53.193012"
     fill="#000000"
     font="italic  bold 12pt serif"
     stroke="none"
     text-anchor="middle"
     id="text239"
     style="font-size:25.4222px;font-family:sans-serif;stroke-width:4.23703"
     transform="scale(0.94776919,1.0551092)" onclick="klik(this)">L</text>
  <g
     transform="matrix(1.3452705,0,0,1.4976298,218.29548,15.912838)"
     id="g245"
     style="font-family:sans-serif;fill:none;stroke:#000000;stroke-width:2">
    <path
       d="M 0,8 H 5"
       id="path241" />
    <circle
       cx="8"
       cy="8"
       r="3"
       fill="#ffffff"
       id="circle243" />
  </g>
  <g
     transform="matrix(1.3452705,0,0,1.4976298,218.29548,111.76115)"
     id="g251"
     style="font-family:sans-serif;fill:none;stroke:#000000;stroke-width:2">
    <path
       d="M 0,8 H 5"
       id="path247" />
    <circle
       cx="8"
       cy="8"
       r="3"
       fill="#ffffff"
       id="circle249" />
  </g>
  <g
     transform="matrix(-1.3452705,0,0,-1.4976298,24.576527,39.874915)"
     id="g257"
     style="font-family:sans-serif;fill:none;stroke:#000000;stroke-width:2">
    <path
       d="M 0,8 H 5"
       id="path253" />
    <circle
       cx="8"
       cy="8"
       r="3"
       fill="#ffffff"
       id="circle255" />
  </g>
  <g
     transform="matrix(-1.3452705,0,0,-1.4976298,24.576527,135.72322)"
     id="g263"
     style="font-family:sans-serif;fill:none;stroke:#000000;stroke-width:2">
    <path
       d="M 0,8 H 5"
       id="path259" />
    <circle
       cx="8"
       cy="8"
       r="3"
       fill="#ffffff"
       id="circle261" />
  </g>
  <circle
     style="fill:#000000;stroke-width:5"
     id="path833"
     cx="185.86771"
     cy="27.483538"
     r="5.2828536" />
  <circle
     style="fill:#000000;stroke-width:5"
     id="path833-3"
     cx="185.58041"
     cy="123.14017"
     r="5.2828536" />
  <path
     d="M 114.40132,16.646571 V 38.170897"
     id="path173-7"
     style="stroke:#000000;stroke-width:2.83881" />
  <path
     d="M 122.63552,16.785217 V 38.309543"
     id="path173-7-3"
     style="stroke:#000000;stroke-width:2.83881" />
  <text
     xml:space="preserve"
     style="font-style:normal;font-weight:normal;font-size:30.1643px;line-height:1.25;font-family:sans-serif;fill:#000000;fill-opacity:1;stroke:none;stroke-width:0.754107"
     x="106.26917"
     y="66.739449"
     id="text1318"><tspan
       sodipodi:role="line"
       id="tspan1316"
       x="106.26917"
       y="66.739449"
       style="stroke-width:0.754107"
       onclick="klik(this)"
       >C</tspan></text>
</svg>
