<?xml version="1.0" encoding="UTF-8" standalone="no"?>
<svg
   version="1.1"
   viewBox="0 0 240 144"
   id="svg287"
   sodipodi:docname="RL.svg"
   inkscape:version="1.2 (1:1.2.1+202207142221+cd75a1ee6d)"
   xmlns:inkscape="http://www.inkscape.org/namespaces/inkscape"
   xmlns:sodipodi="http://sodipodi.sourceforge.net/DTD/sodipodi-0.dtd"
   xmlns="http://www.w3.org/2000/svg"
   xmlns:svg="http://www.w3.org/2000/svg">
  <defs
     id="defs291" />
  <sodipodi:namedview
     id="namedview289"
     pagecolor="#ffffff"
     bordercolor="#666666"
     borderopacity="1.0"
     inkscape:showpageshadow="2"
     inkscape:pageopacity="0.0"
     inkscape:pagecheckerboard="0"
     inkscape:deskcolor="#d1d1d1"
     showgrid="false"
     inkscape:zoom="5.6458333"
     inkscape:cx="119.91144"
     inkscape:cy="72"
     inkscape:window-width="1848"
     inkscape:window-height="1016"
     inkscape:window-x="72"
     inkscape:window-y="27"
     inkscape:window-maximized="1"
     inkscape:current-layer="svg287" />
  <g
     id="g662"
     transform="matrix(1.3452705,0,0,1.4976298,-41.928265,-37.356674)">
    <path
       d="m 49.436001,43.569212 h 16"
       id="path173"
       style="stroke:#000000;stroke-width:2" />
    <path
       d="m 177.436,43.569212 h 16"
       id="path179"
       style="stroke:#000000;stroke-width:2" />
    <path
       d="M 49.436001,107.56921 H 161.436"
       id="path181"
       style="stroke:#000000;stroke-width:2" />
    <path
       d="m 177.436,107.56921 h 16"
       id="path183"
       style="stroke:#000000;stroke-width:2" />
    <g
       transform="translate(65.436001,35.569212)"
       id="g197"
       style="font-family:sans-serif;fill:none;stroke:#000000;stroke-width:2">
      <path
         d="M 0,8 96.088564,7.96925"
         id="path193"
         sodipodi:nodetypes="cc" />
      <rect
         x="12"
         y="4"
         width="24"
         height="8"
         fill="#ffffff"
         id="rect195" />
    </g>
    <text
       x="89.436005"
       y="65.569214"
       fill="#000000"
       font="italic  bold 12pt serif"
       stroke="none"
       text-anchor="middle"
       id="text209"
       style="font-family:sans-serif;stroke-width:2">R</text>
    <g
       transform="rotate(90,70.933395,106.50261)"
       id="g225"
       style="font-family:sans-serif;fill:none;stroke:#000000;stroke-width:2">
      <path
         d="M 8,0 V 16"
         id="path219" />
      <path
         d="m 8,8 h 8"
         id="path221" />
      <circle
         cx="8"
         cy="8"
         r="3"
         fill="#000000"
         stroke="none"
         id="circle223" />
    </g>
    <g
       transform="rotate(-90,138.50261,-22.933395)"
       id="g233"
       style="font-family:sans-serif;fill:none;stroke:#000000;stroke-width:2">
      <path
         d="M 8,0 V 16"
         id="path227" />
      <path
         d="m 8,8 h 8"
         id="path229" />
      <circle
         cx="8"
         cy="8"
         r="3"
         fill="#000000"
         stroke="none"
         id="circle231" />
    </g>
    <g
       transform="rotate(90,62.933395,114.50261)"
       id="g237"
       style="font-family:sans-serif;fill:none;stroke:#000000;stroke-width:2">
      <path
         d="m 0,8 h 8 a 4,5.3333333 0 0 1 8,0 4,5.3333333 0 0 1 8,0 4,5.3333333 0 0 1 8,0 4,5.3333333 0 0 1 8,0 h 8"
         id="path235" />
    </g>
    <text
       x="161.436"
       y="81.569214"
       fill="#000000"
       font="italic  bold 12pt serif"
       stroke="none"
       text-anchor="middle"
       id="text239"
       style="font-family:sans-serif;stroke-width:2">L</text>
    <g
       transform="translate(193.436,35.569212)"
       id="g245"
       style="font-family:sans-serif;fill:none;stroke:#000000;stroke-width:2">
      <path
         d="M 0,8 H 5"
         id="path241" />
      <circle
         cx="8"
         cy="8"
         r="3"
         fill="#ffffff"
         id="circle243" />
    </g>
    <g
       transform="translate(193.436,99.569212)"
       id="g251"
       style="font-family:sans-serif;fill:none;stroke:#000000;stroke-width:2">
      <path
         d="M 0,8 H 5"
         id="path247" />
      <circle
         cx="8"
         cy="8"
         r="3"
         fill="#ffffff"
         id="circle249" />
    </g>
    <g
       transform="rotate(180,24.718,25.784606)"
       id="g257"
       style="font-family:sans-serif;fill:none;stroke:#000000;stroke-width:2">
      <path
         d="M 0,8 H 5"
         id="path253" />
      <circle
         cx="8"
         cy="8"
         r="3"
         fill="#ffffff"
         id="circle255" />
    </g>
    <g
       transform="rotate(180,24.718,57.784606)"
       id="g263"
       style="font-family:sans-serif;fill:none;stroke:#000000;stroke-width:2">
      <path
         d="M 0,8 H 5"
         id="path259" />
      <circle
         cx="8"
         cy="8"
         r="3"
         fill="#ffffff"
         id="circle261" />
    </g>
  </g>
</svg>
