<?xml version="1.0" encoding="iso-8859-1"?>
<!-- Generator: Adobe Illustrator 19.0.0, SVG Export Plug-In . SVG Version: 6.00 Build 0)  -->
<svg version="1.1" id="Layer_1" xmlns="http://www.w3.org/2000/svg" xmlns:xlink="http://www.w3.org/1999/xlink" x="0px" y="0px"
	 viewBox="0 0 511.999 511.999" style="enable-background:new 0 0 511.999 511.999;" xml:space="preserve">
<g>
	<g>
		<path d="M400.695,255.999h-128V209.99c18.916-3.35,36.336-12.356,50.202-26.222c17.87-17.868,27.711-41.627,27.711-66.899V61.217
			c0-9.22-7.475-16.696-16.696-16.696h-16.696c-5.34,0-10.556,0.543-15.597,1.572c-5.601-15.947-16.255-29.887-30.75-39.55
			l-5.607-3.739c-5.609-3.739-12.916-3.739-18.524,0l-5.606,3.739c-14.496,9.663-25.15,23.604-30.751,39.55
			c-5.042-1.028-10.258-1.572-15.598-1.572h-16.696c-9.22,0-16.696,7.475-16.696,16.696v55.652c0,25.272,9.842,49.031,27.71,66.897
			c13.866,13.869,31.287,22.874,50.203,26.224v46.009h-128c-9.22,0-16.696,7.475-16.696,16.696v66.783
			c0,9.22,7.475,16.696,16.696,16.696h19.895l30.563,142.629c1.65,7.698,8.452,13.197,16.325,13.197h155.826
			c7.873,0,14.675-5.5,16.325-13.197l30.563-142.629h19.895c9.22,0,16.696-7.475,16.696-16.696v-66.783
			C417.391,263.474,409.916,255.999,400.695,255.999z M256,37.031c7.24,5.937,12.418,13.89,14.946,22.763
			c-5.602,4.148-10.634,9.025-14.946,14.495c-4.312-5.471-9.344-10.346-14.946-14.495C243.581,50.921,248.758,42.968,256,37.031z
			 M212.712,160.155c-11.562-11.561-17.93-26.935-17.93-43.286V77.912c24.549,0,44.522,19.972,44.522,44.522
			c0,9.22,7.475,16.696,16.696,16.696s16.696-7.475,16.696-16.696c0-24.549,19.972-44.522,44.522-44.522v38.957
			c0,16.353-6.368,31.725-17.931,43.289c-11.561,11.561-26.933,17.929-43.286,17.929S224.274,171.718,212.712,160.155z
			 M320.416,478.608H191.583l-26.236-122.435h181.305L320.416,478.608z M384,322.782h-16.696H144.695H128V289.39h256V322.782z"/>
	</g>
</g>
<g>
</g>
<g>
</g>
<g>
</g>
<g>
</g>
<g>
</g>
<g>
</g>
<g>
</g>
<g>
</g>
<g>
</g>
<g>
</g>
<g>
</g>
<g>
</g>
<g>
</g>
<g>
</g>
<g>
</g>
</svg>
