<?xml version="1.0" encoding="UTF-8" standalone="no"?>
<!-- Created with Inkscape (http://www.inkscape.org/) -->

<svg
   id="svg1923"
   sodipodi:version="0.32"
   inkscape:version="1.1.1 (1:1.1+202109281949+c3084ef5ed)"
   width="350.97714"
   height="332.64114"
   version="1.0"
   sodipodi:docname="fractal1.svg"
   xmlns:inkscape="http://www.inkscape.org/namespaces/inkscape"
   xmlns:sodipodi="http://sodipodi.sourceforge.net/DTD/sodipodi-0.dtd"
   xmlns="http://www.w3.org/2000/svg"
   xmlns:svg="http://www.w3.org/2000/svg"
   xmlns:rdf="http://www.w3.org/1999/02/22-rdf-syntax-ns#"
   xmlns:cc="http://creativecommons.org/ns#"
   xmlns:dc="http://purl.org/dc/elements/1.1/">
  <metadata
     id="metadata1928">
    <rdf:RDF>
      <cc:Work
         rdf:about="">
        <dc:format>image/svg+xml</dc:format>
        <dc:type
           rdf:resource="http://purl.org/dc/dcmitype/StillImage" />
        <dc:date>2006</dc:date>
        <dc:creator>
          <cc:Agent>
            <dc:title>Nevit Dilmen</dc:title>
          </cc:Agent>
        </dc:creator>
        <dc:title>L-System Star</dc:title>
        <cc:license
           rdf:resource="http://creativecommons.org/licenses/GPL/2.0/" />
      </cc:Work>
      <cc:License
         rdf:about="http://creativecommons.org/licenses/GPL/2.0/">
        <cc:permits
           rdf:resource="http://web.resource.org/cc/Reproduction" />
        <cc:permits
           rdf:resource="http://web.resource.org/cc/Distribution" />
        <cc:requires
           rdf:resource="http://web.resource.org/cc/Notice" />
        <cc:permits
           rdf:resource="http://web.resource.org/cc/DerivativeWorks" />
        <cc:requires
           rdf:resource="http://web.resource.org/cc/ShareAlike" />
        <cc:requires
           rdf:resource="http://web.resource.org/cc/SourceCode" />
      </cc:License>
    </rdf:RDF>
  </metadata>
  <defs
     id="defs1926" />
  <sodipodi:namedview
     inkscape:window-height="1016"
     inkscape:window-width="1848"
     inkscape:pageshadow="2"
     inkscape:pageopacity="0.0"
     guidetolerance="10.0"
     gridtolerance="10.0"
     objecttolerance="10.0"
     borderopacity="1.0"
     bordercolor="#666666"
     pagecolor="#ffffff"
     id="base"
     showborder="false"
     inkscape:showpageshadow="false"
     inkscape:zoom="0.95928753"
     inkscape:cx="200.14854"
     inkscape:cy="195.45756"
     inkscape:window-x="72"
     inkscape:window-y="27"
     inkscape:current-layer="svg1923"
     inkscape:pagecheckerboard="0"
     showgrid="false"
     inkscape:window-maximized="1" />
  <path
     style="fill:black"
     d="M 68.989294,330.87523 C 69.376254,329.56885 70.774464,326.08312 72.096428,323.12916 C 73.418393,320.17519 74.5,317.64957 74.5,317.51665 C 74.5,317.38374 71.245839,314.85518 67.268531,311.89762 C 59.171397,305.87654 59.36674,305.54076 70.597502,306.17535 L 77.377666,306.55847 L 80.943271,296.617 C 82.904354,291.1492 84.39438,286.5623 84.25444,286.42389 C 84.1145,286.28548 80.197681,283.23938 75.550401,279.65478 L 67.100803,273.13732 L 60.083496,278.01842 C 56.223977,280.70303 52.907902,282.74124 52.71444,282.54777 C 52.520979,282.35431 53.508351,278.90168 54.908601,274.87527 C 56.308851,270.84885 57.127245,267.23911 56.727255,266.85361 C 56.327265,266.46812 53.085151,263.83239 49.522558,260.99643 L 43.045117,255.84015 L 51.750423,256.17008 L 60.455728,256.5 L 63.150945,248.75 C 64.633314,244.4875 66.183376,241 66.595528,241 C 67.365226,241 68.57258,244.33436 70.465602,251.68801 L 71.543706,255.87603 L 82.476752,256.18801 L 93.4098,256.5 L 96.60473,247.5 C 98.36194,242.55 99.96246,238.04935 100.16144,237.49856 C 100.36041,236.94778 97.27232,234.02278 93.299,230.99856 C 86.37097,225.72542 86.19226,225.48642 88.93986,225.16887 C 90.51565,224.98674 94.4145,224.98674 97.60398,225.16887 L 103.40304,225.5 L 106.95596,215.58777 C 108.91006,210.13605 110.39438,205.5623 110.25444,205.42389 C 110.1145,205.28548 106.19571,202.23786 101.54602,198.65139 L 93.09204,192.13055 L 87.04602,196.35429 C 83.72071,198.67734 80.481785,200.89716 79.848411,201.28721 C 78.44969,202.14858 80.479256,194.87458 82.995065,190.00954 C 83.90389,188.25207 84.50179,186.66971 84.32374,186.49319 C 84.14568,186.31666 80.20099,183.24193 75.557755,179.66045 L 67.11551,173.14867 L 58.233128,179.29378 C 51.076255,184.24513 49.442999,185.83336 49.825636,187.46945 C 50.086825,188.58625 51.031369,192.15154 51.924621,195.39231 C 52.817874,198.63308 53.374705,201.45863 53.162023,201.67131 C 52.949342,201.88399 50.028321,199.99304 46.670865,197.46919 L 40.5664,192.88039 L 34.553096,196.96394 C 25.252225,203.28004 25.067432,203.24987 27.833848,195.86694 C 29.145994,192.36512 30.512888,188.82435 30.87139,187.99856 C 31.331785,186.93807 29.401618,184.88232 24.299005,180.99856 C 17.370966,175.72542 17.192256,175.48642 19.939863,175.16887 C 21.515648,174.98674 25.423019,174.98674 28.62291,175.16887 L 34.440892,175.5 L 38.116267,165.69582 C 40.208852,160.11378 41.405859,155.55391 40.895821,155.10739 C 40.403119,154.67605 36.293322,151.74854 31.762939,148.60181 L 23.525877,142.88048 L 17.135948,147.44024 C 13.621487,149.94811 10.500503,152 10.200428,152 C 9.900353,152 10.728881,148.51888 12.041602,144.26418 C 13.354323,140.00948 14.106984,136.21884 13.714183,135.84054 C 13.321383,135.46223 10.075,132.82123 6.5,129.97165 L 0,124.79059 L 9.22583,125.14529 L 18.451659,125.5 L 21.15536,117.73147 C 22.826598,112.92951 24.152131,110.43714 24.62652,111.20471 C 25.048623,111.88769 26.141307,115.49603 27.054709,119.22324 L 28.715439,126 L 39.482221,126 L 50.249004,126 L 54.01123,115.97006 C 56.080454,110.4536 57.599429,105.7672 57.386728,105.55584 C 57.174028,105.34449 53.859636,102.88296 50.021413,100.08578 L 43.042827,95 L 51.669959,95 L 60.297091,95 L 63.043684,87.46932 C 64.554311,83.32744 66.153964,79.71386 66.59847,79.43914 C 67.042975,79.16442 67.877663,80.75323 68.453331,82.96983 C 69.028999,85.18642 69.962844,88.78328 70.528541,90.96285 L 71.557082,94.9257 L 80.661274,95.21285 L 89.76547,95.5 L 82.619942,100.42202 C 77.747124,103.77854 75.618323,105.84593 75.926861,106.92202 C 76.175704,107.78991 77.558691,112.4375 79.000166,117.25 L 81.621029,126 L 92.45906,126 L 103.29709,126 L 106.03249,118.5 C 107.53696,114.375 109.12692,111 109.56574,111 C 110.00455,111 111.10836,114.34764 112.01864,118.4392 L 113.67371,125.8784 L 124.56025,126.1892 L 135.4468,126.5 L 138.94432,116.75601 C 140.86796,111.39681 142.21582,106.423 141.93956,105.70309 C 141.6633,104.98318 140.21389,103.67114 138.71864,102.78744 C 137.22339,101.90374 134.20519,99.75394 132.01153,98.01012 L 128.02306,94.83953 L 136.73528,95.16976 L 145.4475,95.5 L 149.03495,85.50466 L 152.6224,75.50933 L 149.8112,73.23659 C 148.26504,71.98658 144.51483,68.997513 141.47739,66.59422 L 135.95478,62.224596 L 129.05312,67.104695 C 125.25721,69.78875 121.99837,71.8317 121.81126,71.64459 C 121.62415,71.45748 122.47335,68.1984 123.69838,64.402194 C 124.92341,60.605987 125.94243,57.155891 125.96286,56.735314 C 125.98328,56.314737 122.85736,53.466192 119.01635,50.405215 L 112.0327,44.839802 L 120.75873,45.169901 L 129.48476,45.5 L 132.12633,38.25 C 133.57919,34.2625 135.09207,31 135.48827,31 C 135.88448,31 137.21058,34.375 138.43516,38.5 L 140.66166,46 L 151.44808,46 L 162.2345,46 L 165.51581,37.25 C 167.32053,32.4375 168.98003,27.998449 169.20358,27.385442 C 169.42713,26.772435 166.33448,23.847435 162.33103,20.885442 C 155.34925,15.719904 155.17016,15.486413 157.94515,15.167257 C 159.53637,14.984248 163.23267,14.984248 166.15914,15.167257 L 171.48,15.5 L 174.6024,7.75 C 176.31972,3.4875 177.86433,0 178.03485,0 C 178.40536,0 179.96959,4.877686 181.48229,10.75 L 182.57709,15 L 192.2765,15 L 201.97592,15 L 194.28701,20.25 C 189.33627,23.630373 186.7372,26.034179 186.9887,27 C 187.20353,27.825 188.55023,32.409769 189.98137,37.188377 L 192.58344,45.876753 L 203.50466,46.188377 L 214.42589,46.5 L 217.31498,38.536632 L 220.20406,30.573263 L 221.29578,34.036632 C 221.89622,35.941484 222.88016,39.4125 223.48229,41.75 L 224.57709,46 L 234.28854,46.03121 L 244,46.062419 L 240.46188,48.28121 C 238.51592,49.501544 235.14092,51.831798 232.96188,53.45955 C 230.78285,55.087303 228.84125,56.521057 228.64721,56.645672 C 228.45318,56.770286 229.27589,59.938488 230.47547,63.686121 C 231.67504,67.433755 232.85531,71.12278 233.09828,71.88396 C 233.35507,72.68844 232.17084,72.24489 230.27002,70.82464 C 228.47151,69.48084 225.40051,67.184277 223.44557,65.721165 L 219.89114,63.060962 L 211.44557,68.672686 C 206.80051,71.75913 202.85505,74.40287 202.67788,74.54766 C 202.50072,74.69244 203.75754,79.35345 205.47082,84.90545 L 208.58589,95 L 218.11954,95 L 227.65319,95 L 223.3266,98.29891 C 220.94697,100.1133 217.5375,102.46033 215.75,103.51451 C 213.9625,104.5687 212.54086,105.89669 212.59079,106.46561 C 212.64073,107.03452 214.10323,111.775 215.84079,117 L 219,126.5 L 229.64265,126.78274 L 240.28531,127.06549 L 242.38242,120.28274 C 245.4962,110.21177 245.83741,110.10972 248.30888,118.51025 L 250.51241,126 L 260.5062,126 C 266.00279,126 270.8375,126.1125 271.25,126.25 C 271.84388,126.44796 278.09424,109.52506 278.41978,106.83778 C 278.4639,106.47356 275.4625,103.99856 271.75,101.33778 L 265,96.5 L 273.5,96 L 282,95.5 L 284.38675,88.25 C 285.69945,84.2625 287.0718,81 287.43641,81 C 287.80102,81 289.08711,84.35745 290.29439,88.46099 L 292.48945,95.92198 L 301.24473,96.21099 L 310,96.5 L 303.5,100.90481 C 299.925,103.32746 296.82476,105.4527 296.61058,105.62757 C 296.3964,105.80243 296.93088,108.54527 297.79832,111.72275 C 298.66576,114.90024 299.86333,119.38461 300.45959,121.68801 L 301.54371,125.87603 L 312.51389,126.18801 L 323.48408,126.5 L 326.11891,119.2694 C 328.85334,111.76548 329.81517,111.06214 330.94462,115.74055 C 331.31103,117.25825 332.04855,120.17017 332.58358,122.21148 L 333.55634,125.92296 L 342.26674,126.21148 L 350.97714,126.5 L 344.23857,131.44287 C 340.53236,134.16145 337.5,136.67013 337.5,137.01772 C 337.5,137.3653 338.625,140.95733 340,145 C 341.375,149.04267 342.5,152.52713 342.5,152.74325 C 342.5,153.42767 336.12699,148.80123 332.83278,145.72539 L 329.66555,142.76813 L 320.54912,149.07517 C 315.53508,152.54404 311.61336,155.85871 311.83419,156.4411 C 312.05501,157.0235 313.42951,161.42074 314.88862,166.21275 L 317.54156,174.9255 L 326.67337,175.21275 L 335.80518,175.5 L 329.90259,179.78993 C 326.65617,182.14939 323.44449,184.42162 322.76553,184.83934 C 321.81969,185.42126 322.10845,187.45775 324.00053,193.54942 C 325.35873,197.92224 326.47674,201.62833 326.48499,201.78518 C 326.52652,202.57431 322.47741,199.73498 318.239,196.0029 L 313.47799,191.81065 L 306.7441,196.8271 C 303.04046,199.58615 299.86452,201.69786 299.68645,201.51979 C 299.50838,201.34172 300.50835,197.90168 301.9086,193.87527 C 303.30885,189.84885 304.12724,186.24056 303.72725,185.85685 C 303.32726,185.47313 299.63044,182.47103 295.51209,179.18551 L 288.02419,173.21184 L 279.26209,179.27374 C 274.44294,182.60778 270.50675,185.59762 270.51501,185.91782 C 270.52326,186.23802 271.61342,189.9875 272.93759,194.25 C 274.26175,198.5125 275.03351,202 274.6526,202 C 274.27169,202 271.26903,199.80868 267.98002,197.13039 L 262,192.26079 L 253.25,198.29821 C 248.4375,201.6188 244.5,204.68895 244.5,205.12077 C 244.5,205.55259 244.93522,206.93957 245.46715,208.20295 C 245.99908,209.46633 247.38776,213.74554 248.55311,217.71232 L 250.67191,224.92464 L 259.29731,225.21232 L 267.92271,225.5 L 261.21135,229.86746 C 257.52011,232.26956 254.5,234.46968 254.5,234.75662 C 254.5,235.04355 255.86932,239.71569 257.54294,245.13916 L 260.58589,255 L 270.54294,255 C 276.01932,255 280.8375,255.05157 281.25,255.11461 C 281.6625,255.17765 283.15729,251.74798 284.57175,247.49313 L 287.14349,239.75704 L 289.9232,247.37852 L 292.70291,255 L 301.83004,255 L 310.95717,255 L 303.97859,260.08578 C 300.14036,262.88296 296.86898,265.30148 296.70884,265.46027 C 296.54871,265.61906 297.28636,269.06796 298.34807,273.12449 C 299.40978,277.18102 300.10813,280.68267 299.89995,280.90594 C 299.69178,281.12921 296.91815,279.26661 293.73633,276.76684 L 287.95121,272.22179 L 279.67446,277.99538 C 275.12224,281.17085 271.21263,283.95404 270.98642,284.18024 C 270.76022,284.40645 271.90824,289.0317 273.53757,294.45858 C 275.16691,299.88545 276.5,304.45984 276.5,304.62388 C 276.5,304.78792 280.31874,305.05215 284.98609,305.21107 L 293.47218,305.5 L 288.23609,309.2875 C 285.35624,311.37063 282.41279,313.43745 281.6951,313.88045 C 280.64281,314.52997 280.78714,316.20137 282.4406,322.51411 C 283.56832,326.81963 284.3558,330.47754 284.19054,330.64279 C 284.02529,330.80804 281.21481,328.76073 277.94504,326.0932 L 272,321.24315 L 266,325.41059 C 262.7,327.70268 259.43465,329.92629 258.74367,330.35194 C 257.68222,331.00581 259.87021,323.93487 262.89344,316.9411 C 263.39499,315.78084 261.24618,313.77637 254.49039,309.1025 L 245.41347,302.8228 L 237.70674,308.55222 C 233.46803,311.7034 229.65245,314.58833 229.22766,314.96316 C 228.60368,315.51377 230.32333,322.64934 233.04743,330.81295 C 233.48634,332.12828 232.18185,331.31249 224.01337,325.16328 L 220.02674,322.16215 L 214.01337,326.40849 C 205.1986,332.63304 205.5218,332.57795 207.01974,327.60067 C 207.74734,325.18302 209.05306,321.83118 209.92133,320.15213 C 210.7896,318.47309 211.5,316.89457 211.5,316.64432 C 211.5,316.39407 208.24921,313.78422 204.27601,310.84466 C 197.36119,305.72873 197.17513,305.48583 199.92848,305.16887 C 201.51052,304.98674 205.42427,304.98674 208.62569,305.16887 L 214.44646,305.5 L 217.99747,295.60757 C 219.95052,290.16673 221.42507,285.59299 221.27424,285.44369 C 221.12341,285.29439 217.19344,282.2361 212.54097,278.6475 L 204.08194,272.12276 L 198.04097,276.3888 C 189.19469,282.6359 189.52133,282.57952 191.01974,277.60067 C 191.74734,275.18302 193.09135,271.75713 194.00643,269.98757 C 194.9215,268.21802 195.2944,266.44461 194.8351,266.04667 C 194.37579,265.64873 190.36291,262.79758 185.91758,259.71079 L 177.83516,254.09844 L 169.41758,259.69143 C 164.78791,262.76757 160.85792,265.39999 160.68428,265.54126 C 160.35322,265.81059 161.48089,270.19422 163.98099,278.3567 L 165.46856,283.2134 L 161.98428,280.6067 C 160.06793,279.17301 156.99339,276.87376 155.15199,275.49724 L 151.80397,272.99447 L 148.40199,275.47088 C 146.53089,276.83291 142.6375,279.59786 139.75,281.61522 C 136.8625,283.63259 134.5,285.50707 134.5,285.78074 C 134.5,286.05441 135.86932,290.71569 137.54294,296.13916 L 140.58589,306 L 149.29294,306.00497 L 158,306.00993 L 155,308.50512 C 153.35,309.87747 150.3125,311.9831 148.25,313.18429 C 146.1875,314.38549 144.50675,315.62292 144.51501,315.93414 C 144.52326,316.24536 145.63932,320.07144 146.99514,324.43653 C 148.35096,328.80163 149.34503,332.48831 149.20418,332.62915 C 149.06333,332.77 145.90498,330.65067 142.18562,327.91951 L 135.42315,322.95379 L 129.08459,327.47689 C 125.59837,329.9646 122.51305,332 122.22832,332 C 121.469,332 122.96795,326.09001 124.859,321.62788 C 125.76155,319.49821 126.5,317.45329 126.5,317.08362 C 126.5,316.71395 122.67702,313.58003 118.00448,310.11936 L 109.50896,303.82723 L 101.25448,309.54822 C 96.71452,312.69477 92.65245,315.57869 92.22766,315.95695 C 91.6045,316.51184 93.28811,323.51101 96.03215,331.77314 C 96.63216,333.57973 93.96,332.02652 88.01199,327.11138 L 83.147626,323.0917 L 77.073813,327.33486 C 67.962709,333.69988 68.180916,333.60432 68.989294,330.87523 z "
     id="path1932" />
  <path
     style="fill:#0000ff;stroke:#000078;stroke-width:5.2122"
     d="m 71.941527,325.11167 c 1.426125,-3.22473 2.592956,-6.45136 2.592956,-7.17031 0,-0.71895 -2.591972,-3.30687 -5.759936,-5.75094 -3.167965,-2.44407 -5.530608,-4.67309 -5.250318,-4.95337 0.28029,-0.28029 3.665891,-0.56587 7.523557,-0.63461 l 7.01394,-0.12499 3.392817,-9.38196 c 1.866049,-5.16008 3.41791,-9.70832 3.44858,-10.10721 0.03067,-0.39889 -3.967511,-3.86685 -8.884846,-7.70658 l -8.940609,-6.98134 -6.255598,4.41158 c -3.44058,2.42636 -6.458786,4.20837 -6.707127,3.96003 -0.248341,-0.24834 0.257128,-2.46007 1.123264,-4.91496 2.641338,-7.48635 2.114169,-9.44367 -3.798813,-14.10449 l -5.28999,-4.16976 7.358427,-0.3051 7.358426,-0.3051 2.178957,-5.94954 c 1.198426,-3.27226 2.42262,-6.64005 2.72043,-7.48399 0.807738,-2.289 2.185221,0.30413 3.678174,6.9242 1.443803,6.40211 1.814994,6.56414 15.084363,6.58408 l 9.472478,0.0143 3.431187,-9.95421 3.431184,-9.95422 -2.3577,-2.50965 c -1.296736,-1.38032 -4.254425,-3.82012 -6.57264,-5.42179 l -4.214939,-2.91217 8.210419,-0.52122 8.21042,-0.52122 3.38489,-9.38196 c 1.86169,-5.16008 3.40999,-9.66686 3.44065,-10.01506 0.0307,-0.3482 -3.99544,-3.74476 -8.94692,-7.54791 l -9.002688,-6.91481 -6.633918,4.73386 c -3.648656,2.60363 -6.633919,4.4663 -6.633919,4.13927 0,-0.32703 1.172745,-3.48075 2.6061,-7.00826 1.433356,-3.5275 2.606101,-6.54187 2.606101,-6.69857 0,-0.1567 -3.970406,-3.38523 -8.823125,-7.17451 l -8.823124,-6.88959 -7.625732,5.14579 c -10.682346,7.20838 -10.7664,7.34199 -9.153401,14.55056 0.733212,3.27676 1.592256,6.63328 1.908989,7.45894 0.316732,0.82566 -2.286545,-0.50667 -5.785062,-2.96074 l -6.360937,-4.46195 -6.278715,4.2638 c -3.453293,2.34509 -6.51798,4.26379 -6.810417,4.26379 -0.292436,0 0.577951,-2.94807 1.934194,-6.55128 2.909046,-7.72863 2.66983,-8.4106 -4.893485,-13.95077 l -5.454305,-3.9953 8.251685,-0.52122 8.251687,-0.52122 2.885463,-7.8183 c 3.838551,-10.40074 3.782933,-12.48814 -0.407044,-15.27663 -1.856264,-1.23537 -5.816925,-3.98458 -8.801468,-6.10937 l -5.426443,-3.86322 -5.989571,4.24904 c -3.294265,2.33699 -6.13056,4.10807 -6.302877,3.93575 -0.172319,-0.17232 0.386103,-2.61886 1.240937,-5.43677 2.484393,-8.18966 2.180266,-9.22129 -4.1813404,-14.1836 l -5.7581497,-4.49159 8.2392081,-0.30075 8.239209,-0.30075 2.306665,-6.32625 c 1.268667,-3.47943 2.699279,-5.92413 3.179139,-5.43267 0.47986,0.49146 1.521086,3.47362 2.313836,6.627 l 1.441362,5.73342 h 11.344409 11.344408 l 3.389515,-9.38196 c 1.864233,-5.16008 3.414609,-9.95217 3.445279,-10.64909 0.03067,-0.69693 -2.798128,-3.27697 -6.286217,-5.73343 l -6.34198,-4.466291 7.757104,-0.301785 7.757103,-0.301786 2.869757,-7.314528 c 1.578366,-4.02299 3.07316,-7.111123 3.321764,-6.862519 0.248605,0.248604 1.293582,3.441396 2.322173,7.095093 l 1.870164,6.643085 7.987112,0.304459 c 4.392911,0.167454 7.978684,0.636552 7.968382,1.042441 -0.01032,0.40589 -2.37738,2.28044 -5.260174,4.165671 -2.882795,1.88523 -5.513284,4.13608 -5.84553,5.00191 -0.332247,0.86582 0.709564,6.0226 2.315134,11.45951 l 2.91922,9.88531 11.395659,-0.29304 11.395654,-0.29305 2.52322,-6.71721 c 1.38777,-3.69446 2.68909,-6.88308 2.89184,-7.08582 0.20274,-0.20274 1.18242,2.95213 2.17705,7.01083 l 1.80843,7.37945 11.51421,-0.29363 11.51421,-0.29362 2.95957,-8.81359 c 1.62776,-4.84748 2.95957,-9.64054 2.95957,-10.65125 0,-1.0107 -2.58004,-3.7856 -5.73342,-6.16642 -3.15338,-2.380831 -5.73342,-4.549075 -5.73342,-4.818325 0,-0.269251 3.38692,-0.33308 7.52648,-0.141842 l 7.52649,0.347705 3.34062,-8.854267 c 1.83733,-4.869846 3.37594,-9.6331 3.41913,-10.585007 0.0729,-1.607926 -14.75573,-14.427085 -16.68867,-14.427085 -0.47394,0 -3.54059,1.876564 -6.81478,4.170141 -3.27419,2.293577 -6.09065,4.03256 -6.25881,3.864407 -0.16815,-0.168154 0.63883,-3.334737 1.7933,-7.036851 l 2.09903,-6.731119 -2.92624,-2.606101 c -1.60944,-1.433355 -4.56663,-3.926888 -6.57154,-5.541184 l -3.64528,-2.935084 8.19472,0.328983 8.19472,0.328983 2.68344,-7.238854 2.68345,-7.238854 2.49982,7.499465 2.49983,7.499463 h 11.24081 11.24082 l 3.26648,-8.966747 c 1.79656,-4.931711 3.26647,-9.625151 3.26647,-10.429866 0,-0.804715 -2.54761,-3.434314 -5.66137,-5.843553 -3.11374,-2.409239 -5.41163,-4.78451 -5.10639,-5.278381 0.30523,-0.493871 3.43968,-0.58902 6.96544,-0.211441 l 6.41048,0.686504 2.60508,-6.9685921 c 1.43278,-3.8327255 2.90685,-7.1553097 3.2757,-7.3835205 0.36884,-0.2282107 0.9812,0.8718494 1.3608,2.4445782 0.37959,1.5727286 1.1465,4.6005541 1.70423,6.7285014 l 1.01405,3.868994 8.96589,0.300767 8.96589,0.300767 -5.81592,4.00027 c -3.19875,2.200147 -6.30275,4.586867 -6.89776,5.303821 -0.76604,0.92302 -0.28887,4.015584 1.63458,10.593895 1.49404,5.109688 3.01294,9.589896 3.37532,9.956018 0.36239,0.366122 5.62927,0.872295 11.70418,1.124832 l 11.04529,0.459156 2.4672,-7.114921 c 2.64693,-7.633221 3.08325,-7.556273 5.20697,0.918255 l 1.36199,5.434958 8.91856,0.298463 8.91857,0.298462 -5.19679,3.397692 c -9.70174,6.343054 -9.15729,5.31741 -6.81597,12.840102 1.13088,3.633523 1.8865,6.776047 1.67916,6.983387 -0.20733,0.207339 -2.77402,-1.34513 -5.70376,-3.449932 -2.98508,-2.144569 -6.00726,-3.565787 -6.87471,-3.232917 -3.97656,1.52595 -17.07285,11.246942 -16.70156,12.397085 0.22999,0.712444 1.63631,5.399961 3.12516,10.416706 l 2.707,9.121352 h 9.08452 9.08451 l -5.0187,3.568156 c -2.76027,1.962485 -6.04246,4.248725 -7.29374,5.080545 l -2.27506,1.51238 3.40904,10.41337 3.40904,10.41335 5.4517,0.65487 c 2.99843,0.36017 8.0376,0.65894 11.19814,0.66392 l 5.74644,0.009 1.94053,-6.77586 c 1.06728,-3.72672 2.32717,-6.77586 2.79975,-6.77586 0.47258,0 1.64897,2.81459 2.6142,6.25464 l 1.75496,6.25464 h 11.09366 11.09366 l 2.78268,-7.55769 c 4.90339,-13.31746 5.00545,-12.51374 -2.269,-17.86888 l -6.40428,-4.714562 7.9916,-0.305428 7.99161,-0.305751 2.09264,-5.733421 c 1.15095,-3.153382 2.43837,-6.112958 2.86091,-6.576834 0.42255,-0.463878 1.6445,2.216186 2.71544,5.955696 l 1.94719,6.799108 8.28184,0.298946 8.28185,0.298946 -5.91235,3.9198 c -6.80998,4.51491 -6.81581,4.54159 -3.69949,16.96673 l 2.21287,8.82302 h 11.60879 11.60878 l 2.51648,-7.01675 c 2.75047,-7.66921 2.61389,-7.73628 5.2672,2.58638 l 1.13877,4.43037 8.03873,0.049 8.03874,0.0489 -3.59534,2.81777 c -1.97742,1.54977 -4.78543,3.82695 -6.24,5.0604 l -2.64469,2.24266 2.30223,7.08108 c 1.26623,3.89458 2.17323,7.21007 2.01556,7.36773 -0.15767,0.15767 -2.75461,-1.87223 -5.771,-4.51088 l -5.48434,-4.79757 -7.01434,4.7927 c -3.8579,2.63597 -8.03159,5.87548 -9.27487,7.1989 l -2.26053,2.40622 2.87951,9.35828 2.8795,9.35829 8.69382,0.30516 8.69383,0.30514 -6.40201,4.65841 c -3.5211,2.56212 -6.402,5.16719 -6.402,5.78905 0,0.62186 0.74704,3.7004 1.6601,6.8412 0.91306,3.14081 1.40943,5.96124 1.10303,6.26762 -0.30638,0.30639 -2.91914,-1.43466 -5.80612,-3.869 l -5.24906,-4.42607 -5.83692,4.40691 c -3.2103,2.4238 -6.04057,4.20324 -6.28951,3.95432 -0.24892,-0.24894 0.25607,-2.46114 1.1222,-4.91604 2.70875,-7.67739 2.30976,-8.67902 -6.24009,-15.66535 l -7.81489,-6.38578 -8.8377,6.0582 c -5.64191,3.86752 -8.84725,6.7541 -8.86415,7.98265 -0.0146,1.05844 0.72058,4.49418 1.63363,7.63498 0.91306,3.14081 1.4803,5.89037 1.26054,6.11013 -0.21977,0.21976 -2.49138,-1.43687 -5.04804,-3.6814 -2.55665,-2.24453 -5.36713,-4.10096 -6.24551,-4.1254 -0.87837,-0.0244 -5.26157,2.59827 -9.74045,5.82827 -9.22257,6.65099 -8.92115,5.40541 -4.68663,19.36699 l 2.43835,8.03945 7.75438,0.30007 7.75438,0.30008 -5.9683,3.95647 c -4.28561,2.84098 -5.82353,4.45746 -5.45478,5.73342 0.28245,0.97733 1.74772,5.89709 3.25616,10.93283 l 2.74262,9.15587 11.05777,-0.29513 11.05777,-0.29513 2.15324,-5.99403 c 1.18427,-3.29672 2.46888,-5.99404 2.85469,-5.99404 0.3858,0 1.5985,2.69732 2.69487,5.99404 l 1.99341,5.99403 8.13645,0.52122 8.13647,0.52122 -5.87325,4.0361 c -6.33633,4.35433 -6.61724,5.11642 -4.69698,12.74249 0.64694,2.56922 0.8934,4.95415 0.5477,5.29986 -0.34572,0.3457 -2.76372,-1.12105 -5.37337,-3.25946 l -4.7448,-3.88801 -7.00913,4.82729 c -3.85501,2.655 -7.88691,5.48711 -8.95977,6.29356 -2.15232,1.61787 -2.10691,2.03861 1.59467,14.77519 2.42915,8.35835 2.84389,8.65099 12.29425,8.67466 l 5.68362,0.0142 -5.54093,3.87888 -5.54094,3.87888 0.64557,4.72125 c 0.35505,2.59669 0.94759,6.09333 1.31673,7.7703 l 0.67119,3.04906 -3.0231,-2.25095 c -1.66269,-1.23802 -4.23187,-3.17641 -5.70927,-4.30754 l -2.68618,-2.0566 -5.48,3.69045 c -3.014,2.02975 -5.743,3.42745 -6.06445,3.106 -0.32145,-0.32144 0.2218,-2.69557 1.20721,-5.27583 0.98541,-2.58026 1.51808,-5.52258 1.18372,-6.53849 -0.66297,-2.01426 -15.15842,-12.79268 -17.2044,-12.79268 -0.6941,0 -4.74526,2.62158 -9.00259,5.82574 -8.50636,6.40207 -8.73574,6.97725 -6.16379,15.45556 0.85483,2.8179 1.42517,5.25254 1.26741,5.4103 -0.15777,0.15777 -2.78559,-1.61857 -5.83961,-3.94742 l -5.55277,-4.23425 -6.28431,4.33652 c -3.45636,2.38508 -6.48643,4.13438 -6.73349,3.88732 -0.24706,-0.24706 0.73416,-3.19681 2.18048,-6.55501 l 2.62968,-6.10581 -3.34956,-3.13476 c -1.84225,-1.72411 -4.75684,-4.17201 -6.47687,-5.43978 l -3.12732,-2.30504 8.01103,-0.033 8.01103,-0.0331 3.40505,-10.3883 c 1.87277,-5.71356 3.19334,-10.55906 2.93459,-10.76775 -4.4928,-3.62375 -15.38765,-12.00386 -16.36456,-12.5873 -0.77883,-0.46515 -3.69698,0.94011 -7.27956,3.50554 -3.28879,2.35506 -6.11948,3.86234 -6.29042,3.34954 -0.17093,-0.5128 0.6421,-3.15538 1.80676,-5.8724 1.16465,-2.71697 2.11754,-5.5312 2.11754,-6.2538 0,-1.86096 -16.63443,-13.34768 -18.36671,-12.68295 -2.81188,1.07903 -17.07626,11.12276 -17.07626,12.02362 0,0.5048 0.91924,3.87133 2.04275,7.48118 1.12352,3.60987 1.90814,6.698 1.74361,6.86253 -0.16453,0.16453 -2.81033,-1.57445 -5.87956,-3.86441 -3.06924,-2.28995 -5.7761,-4.16355 -6.01526,-4.16355 -0.77638,0 -16.83091,11.53779 -17.45129,12.54159 -0.33108,0.53568 0.84189,5.65282 2.60658,11.37141 l 3.20854,10.39745 7.52682,0.30565 7.52683,0.30565 -5.45408,3.64855 c -2.99975,2.00669 -5.45893,4.35218 -5.46485,5.2122 -0.006,0.86001 0.88084,4.49552 1.97059,8.07891 1.08973,3.58339 1.76977,6.51525 1.51118,6.51525 -0.2586,0 -3.01015,-1.87639 -6.11457,-4.16976 -3.10441,-2.29337 -6.01625,-4.15462 -6.47074,-4.13613 -0.45449,0.0185 -3.38104,1.88112 -6.50346,4.13918 -3.12241,2.25808 -5.83986,3.94283 -6.03879,3.74391 -0.19892,-0.19892 0.59643,-2.88248 1.76744,-5.96347 1.17102,-3.08098 2.1137,-6.30544 2.09486,-7.16545 -0.0332,-1.52001 -12.67238,-11.85081 -16.11489,-13.17182 -1.11448,-0.42767 -4.79616,1.45546 -10.50433,5.37282 -4.833641,3.3172 -8.788442,6.32189 -8.788442,6.67709 0,0.35519 0.875205,3.80207 1.9449,7.65972 1.069694,3.85765 1.647467,7.01391 1.283941,7.01391 -0.363527,0 -2.931652,-1.87639 -5.706946,-4.16976 -2.775293,-2.29337 -5.255198,-4.16976 -5.5109,-4.16976 -0.255702,0 -3.228024,1.87639 -6.605159,4.16976 -3.377136,2.29337 -6.394619,4.16976 -6.70552,4.16976 -0.310899,0 0.601557,-2.6384 2.027683,-5.86313 z"
     id="path186" />
</svg>
