<?xml version="1.0" encoding="UTF-8" standalone="no"?>
<svg
   version="1.1"
   width="512"
   height="512"
   x="0"
   y="0"
   viewBox="0 0 512 512"
   style="enable-background:new 0 0 512 512"
   xml:space="preserve"
   class=""
   id="svg359"
   sodipodi:docname="virus.svg"
   inkscape:version="1.1.1 (1:1.1+202109281949+c3084ef5ed)"
   xmlns:inkscape="http://www.inkscape.org/namespaces/inkscape"
   xmlns:sodipodi="http://sodipodi.sourceforge.net/DTD/sodipodi-0.dtd"
   xmlns="http://www.w3.org/2000/svg"
   xmlns:svg="http://www.w3.org/2000/svg"><defs
     id="defs363" /><sodipodi:namedview
     id="namedview361"
     pagecolor="#ffffff"
     bordercolor="#666666"
     borderopacity="1.0"
     inkscape:pageshadow="2"
     inkscape:pageopacity="0.0"
     inkscape:pagecheckerboard="0"
     showgrid="false"
     inkscape:zoom="1.6484375"
     inkscape:cx="256"
     inkscape:cy="256.30332"
     inkscape:window-width="1848"
     inkscape:window-height="1016"
     inkscape:window-x="72"
     inkscape:window-y="27"
     inkscape:window-maximized="1"
     inkscape:current-layer="svg359" /><g
     id="g357"><path
       d="m247.171875 97.101562c-4.875 0-8.828125-3.949218-8.828125-8.824218v-35.3125c0-4.875 3.953125-8.828125 8.828125-8.828125s8.828125 3.953125 8.828125 8.828125v35.3125c0 4.875-3.953125 8.824218-8.828125 8.824218zm0 0"
       fill="#f36f21"
       data-original="#65ddb9"
       style=""
       class=""
       id="path309" /><path
       d="m128.574219 146.230469c-2.339844-.003907-4.585938-.933594-6.242188-2.589844l-31.214843-31.210937c-3.34375-3.464844-3.296876-8.972657.109374-12.375 3.40625-3.40625 8.910157-3.453126 12.375-.109376l31.214844 31.214844c2.523438 2.523438 3.277344 6.320313 1.910156 9.617188-1.363281 3.300781-4.582031 5.449218-8.152343 5.453125zm0 0"
       fill="#f36f21"
       data-original="#65ddb9"
       style=""
       class=""
       id="path311" /><path
       d="m79.449219 264.828125h-35.3125c-4.875 0-8.828125-3.953125-8.828125-8.828125s3.953125-8.828125 8.828125-8.828125h35.3125c4.875 0 8.828125 3.953125 8.828125 8.828125s-3.953125 8.828125-8.828125 8.828125zm0 0"
       fill="#f36f21"
       data-original="#65ddb9"
       style=""
       class=""
       id="path313" /><path
       d="m97.359375 414.640625c-3.570313 0-6.789063-2.152344-8.152344-5.449219-1.367187-3.296875-.613281-7.09375 1.910157-9.621094l31.214843-31.210937c3.464844-3.347656 8.96875-3.300781 12.375.105469s3.453125 8.910156.109375 12.375l-31.214844 31.214844c-1.65625 1.65625-3.902343 2.585937-6.242187 2.585937zm0 0"
       fill="#f36f21"
       data-original="#65ddb9"
       style=""
       class=""
       id="path315" /><path
       d="m247.171875 467.863281c-4.875 0-8.828125-3.953125-8.828125-8.828125v-35.3125c0-4.875 3.953125-8.824218 8.828125-8.824218s8.828125 3.949218 8.828125 8.824218v35.3125c0 4.875-3.953125 8.828125-8.828125 8.828125zm0 0"
       fill="#f36f21"
       data-original="#65ddb9"
       style=""
       class=""
       id="path317" /><path
       d="m396.984375 414.640625c-2.339844 0-4.585937-.929687-6.238281-2.585937l-31.214844-31.214844c-3.347656-3.464844-3.300781-8.96875.105469-12.375s8.910156-3.453125 12.375-.105469l31.214843 31.210937c2.523438 2.527344 3.277344 6.324219 1.914063 9.621094-1.367187 3.296875-4.585937 5.449219-8.15625 5.449219zm0 0"
       fill="#f36f21"
       data-original="#65ddb9"
       style=""
       class=""
       id="path319" /><path
       d="m459.035156 264.828125h-44.136718c-4.878907 0-8.828126-3.953125-8.828126-8.828125s3.949219-8.828125 8.828126-8.828125h44.136718c4.875 0 8.828125 3.953125 8.828125 8.828125s-3.953125 8.828125-8.828125 8.828125zm0 0"
       fill="#f36f21"
       data-original="#65ddb9"
       style=""
       class=""
       id="path321" /><path
       d="m365.769531 146.230469c-3.566406-.003907-6.785156-2.152344-8.152343-5.453125-1.367188-3.296875-.609376-7.09375 1.914062-9.617188l31.214844-31.214844c2.214844-2.292968 5.496094-3.214843 8.582031-2.40625 3.085937.808594 5.496094 3.21875 6.304687 6.304688.808594 3.085938-.113281 6.367188-2.40625 8.585938l-31.214843 31.210937c-1.65625 1.65625-3.898438 2.585937-6.242188 2.589844zm0 0"
       fill="#f36f21"
       data-original="#65ddb9"
       style=""
       class=""
       id="path323" /><path
       d="m414.898438 256c0 92.632812-75.09375 167.722656-167.726563 167.722656s-167.722656-75.089844-167.722656-167.722656 75.089843-167.722656 167.722656-167.722656 167.726563 75.089844 167.726563 167.722656zm0 0"
       fill="#f36f21"
       data-original="#46b29d"
       style=""
       class=""
       id="path325" /><path
       d="m247.171875 397.242188c-4.875 0-8.828125-3.953126-8.828125-8.828126s3.953125-8.828124 8.828125-8.828124c68.226563-.074219 123.515625-55.363282 123.585937-123.585938 0-4.875 3.953126-8.828125 8.828126-8.828125s8.828124 3.953125 8.828124 8.828125c-.09375 77.96875-63.273437 141.148438-141.242187 141.242188zm0 0"
       fill="#f36f21"
       data-original="#65ddb9"
       style=""
       class=""
       id="path327" /><g
       fill="#14a085"
       id="g355"><path
         d="m317.792969 194.207031c0 19.5-15.808594 35.308594-35.308594 35.308594-19.503906 0-35.3125-15.808594-35.3125-35.308594s15.808594-35.308593 35.3125-35.308593c19.5 0 35.308594 15.808593 35.308594 35.308593zm0 0"
         fill="#c74a1a"
         data-original="#14a085"
         style=""
         class=""
         id="path329" /><path
         d="m194.207031 220.691406c0 14.625-11.855469 26.480469-26.484375 26.480469-14.625 0-26.480468-11.855469-26.480468-26.480469 0-14.628906 11.855468-26.484375 26.480468-26.484375 14.628906 0 26.484375 11.855469 26.484375 26.484375zm0 0"
         fill="#c74a1a"
         data-original="#14a085"
         style=""
         class=""
         id="path331" /><path
         d="m273.65625 300.136719c0 14.628906-11.859375 26.484375-26.484375 26.484375s-26.480469-11.855469-26.480469-26.484375c0-14.625 11.855469-26.480469 26.480469-26.480469s26.484375 11.855469 26.484375 26.480469zm0 0"
         fill="#c74a1a"
         data-original="#14a085"
         style=""
         class=""
         id="path333" /><path
         d="m150.070312 308.964844c-1.15625-.011719-2.292968-.253906-3.355468-.707032-1.070313-.445312-2.054688-1.074218-2.914063-1.851562-.796875-.84375-1.425781-1.832031-1.851562-2.914062-.453125-1.0625-.695313-2.199219-.707031-3.355469.035156-2.335938.949218-4.574219 2.558593-6.265625.859375-.78125 1.84375-1.40625 2.914063-1.855469 3.292968-1.332031 7.058594-.605469 9.621094 1.855469 1.613281 1.691406 2.527343 3.929687 2.5625 6.265625-.015626 1.15625-.253907 2.292969-.707032 3.355469-.425781 1.082031-1.058594 2.070312-1.855468 2.914062-1.691407 1.609375-3.929688 2.523438-6.265626 2.558594zm0 0"
         fill="#c74a1a"
         data-original="#14a085"
         style=""
         class=""
         id="path335" /><path
         d="m194.207031 361.929688c-1.152343-.011719-2.292969-.253907-3.355469-.703126-1.070312-.449218-2.054687-1.078124-2.914062-1.855468-.796875-.84375-1.425781-1.832032-1.851562-2.914063-.453126-1.058593-.691407-2.199219-.707032-3.355469.035156-2.335937.949219-4.574218 2.558594-6.265624.859375-.777344 1.84375-1.40625 2.914062-1.855469 3.292969-1.332031 7.0625-.605469 9.621094 1.855469 1.613282 1.691406 2.527344 3.929687 2.5625 6.265624-.015625 1.15625-.253906 2.296876-.707031 3.355469-.425781 1.082031-1.054687 2.070313-1.855469 2.914063-1.691406 1.613281-3.929687 2.527344-6.265625 2.558594zm0 0"
         fill="#c74a1a"
         data-original="#14a085"
         style=""
         class=""
         id="path337" /><path
         d="m273.65625 26.484375c0 14.625-11.859375 26.480469-26.484375 26.480469s-26.480469-11.855469-26.480469-26.480469c0-14.628906 11.855469-26.484375 26.480469-26.484375s26.484375 11.855469 26.484375 26.484375zm0 0"
         fill="#c74a1a"
         data-original="#14a085"
         style=""
         class=""
         id="path339" /><path
         d="m107.707031 81.222656c0 19.5-15.8125 35.308594-35.3125 35.308594s-35.308593-15.808594-35.308593-35.308594 15.808593-35.308594 35.308593-35.308594 35.3125 15.808594 35.3125 35.308594zm0 0"
         fill="#c74a1a"
         data-original="#14a085"
         style=""
         class=""
         id="path341" /><path
         d="m44.136719 256c0 12.1875-9.878907 22.070312-22.066407 22.070312-12.191406 0-22.070312-9.882812-22.070312-22.070312s9.878906-22.070312 22.070312-22.070312c12.1875 0 22.066407 9.882812 22.066407 22.070312zm0 0"
         fill="#c74a1a"
         data-original="#14a085"
         style=""
         class=""
         id="path343" /><path
         d="m107.707031 430.777344c0 19.5-15.8125 35.308594-35.3125 35.308594s-35.308593-15.808594-35.308593-35.308594 15.808593-35.308594 35.308593-35.308594 35.3125 15.808594 35.3125 35.308594zm0 0"
         fill="#c74a1a"
         data-original="#14a085"
         style=""
         class=""
         id="path345" /><path
         d="m273.65625 485.515625c0 14.628906-11.859375 26.484375-26.484375 26.484375s-26.480469-11.855469-26.480469-26.484375c0-14.625 11.855469-26.480469 26.480469-26.480469s26.484375 11.855469 26.484375 26.480469zm0 0"
         fill="#c74a1a"
         data-original="#14a085"
         style=""
         class=""
         id="path347" /><path
         d="m457.261719 430.777344c0 19.5-15.8125 35.308594-35.3125 35.308594s-35.308594-15.808594-35.308594-35.308594 15.808594-35.308594 35.308594-35.308594 35.3125 15.808594 35.3125 35.308594zm0 0"
         fill="#c74a1a"
         data-original="#14a085"
         style=""
         class=""
         id="path349" /><path
         d="m512 256c0 14.625-11.855469 26.484375-26.484375 26.484375-14.625 0-26.480469-11.859375-26.480469-26.484375s11.855469-26.484375 26.480469-26.484375c14.628906 0 26.484375 11.859375 26.484375 26.484375zm0 0"
         fill="#c74a1a"
         data-original="#14a085"
         style=""
         class=""
         id="path351" /><path
         d="m457.261719 81.222656c0 19.5-15.8125 35.308594-35.3125 35.308594s-35.308594-15.808594-35.308594-35.308594 15.808594-35.308594 35.308594-35.308594 35.3125 15.808594 35.3125 35.308594zm0 0"
         fill="#c74a1a"
         data-original="#14a085"
         style=""
         class=""
         id="path353" /></g></g><path
     style="fill:#000080;stroke:#000078;stroke-width:3.03318"
     d="m 238.7109,441.74184 v -18.41397 l -7.7346,-0.74353 c -27.15695,-2.61063 -53.24057,-11.8994 -76.01091,-27.06867 -4.52069,-3.01162 -10.34898,-7.24415 -12.95174,-9.40562 -2.60277,-2.16147 -5.27079,-4.31766 -5.92893,-4.79153 -1.12018,-0.80653 -2.22523,0.16249 -17.2949,15.16588 -8.98096,8.94145 -16.22324,15.69835 -16.38094,15.28308 -0.65969,-1.73708 -5.835104,-7.30388 -8.613698,-9.26511 l -3.008106,-2.12322 16.025154,-16.07686 16.02517,-16.07686 -4.11136,-4.95582 C 97.664644,337.88223 84.21235,306.56952 80.981554,275.41232 c -0.380569,-3.67014 -0.819913,-7.5562 -0.97632,-8.63569 l -0.284376,-1.96271 -18.324884,-0.16051 c -15.921231,-0.13946 -18.29792,-0.27987 -18.119314,-1.07047 1.418954,-6.28097 1.417723,-8.71794 -0.0077,-15.17882 -0.170635,-0.77344 2.326574,-0.91912 18.126986,-1.05753 l 18.324884,-0.16051 0.271751,-1.96271 c 0.149464,-1.07949 0.711956,-5.78451 1.249982,-10.4556 2.850756,-24.74996 12.63048,-50.84956 27.049997,-72.18957 2.47003,-3.65549 8.65928,-11.75177 13.16581,-17.22246 l 1.34465,-1.63234 -15.9972,-15.98866 -15.997204,-15.98866 3.429801,-2.58816 c 2.850756,-2.1512 4.408161,-3.87667 8.429363,-9.339034 0.11171,-0.151745 7.40697,6.924114 16.21169,15.724134 14.91507,14.90709 16.08863,15.94118 17.18047,15.13846 0.64453,-0.47387 3.87399,-3.04546 7.17655,-5.71466 24.39764,-19.7186 55.71726,-32.416826 87.73978,-35.57322 l 7.7346,-0.762383 V 70.2377 51.844183 l 1.66825,0.466534 c 2.15886,0.603738 11.49042,0.603738 13.64929,0 l 1.66824,-0.466534 v 18.413972 18.413972 l 7.7346,0.743534 c 27.15695,2.610624 53.24057,11.899409 76.01091,27.068669 4.5207,3.01162 10.34898,7.24415 12.95175,9.40562 2.60276,2.16147 5.27078,4.31766 5.92893,4.79153 1.12028,0.8066 2.21224,-0.1535 17.11337,-15.04667 l 15.91674,-15.908235 2.76688,3.520595 c 1.52178,1.93633 4.28149,4.61255 6.13269,5.94714 l 3.36582,2.42654 -16.06056,16.11335 -16.06055,16.11335 3.78016,4.51224 c 16.12477,19.2476 27.8733,42.03562 33.90091,65.75586 2.52026,9.9179 4.11318,19.13213 4.74812,27.46542 l 0.4053,5.3194 22.88386,0.15894 22.88385,0.15894 -0.43836,1.96429 c -0.50151,2.24727 -0.58691,10.7791 -0.13503,13.49035 l 0.30331,1.8199 -22.74881,0.30332 -22.74882,0.30332 -0.4053,5.3194 c -2.51487,33.00662 -16.53617,66.82591 -38.64903,93.22128 l -3.78016,4.51224 16.08152,16.11335 16.08153,16.11335 -3.10066,2.11251 c -1.70537,1.16188 -4.47948,3.83312 -6.16471,5.9361 l -3.06404,3.8236 -15.80236,-15.79393 c -8.69131,-8.68665 -16.09412,-15.79392 -16.4507,-15.79392 -0.35659,0 -1.31014,0.70507 -2.11902,1.56683 -5.33135,5.67994 -23.12414,17.53979 -35.44223,23.62416 -19.02089,9.39515 -37.67417,14.7677 -58.08531,16.72984 l -7.7346,0.74353 v 18.41397 18.41397 l -1.66824,-0.46653 c -0.91754,-0.25659 -3.98863,-0.46653 -6.82465,-0.46653 -2.83602,0 -5.90711,0.20994 -6.82464,0.46653 l -1.66825,0.46653 z m -39.12689,-81.34553 c 4.8283,-3.16362 4.54525,-11.87477 -0.4855,-14.94219 -5.7486,-3.50513 -13.76277,0.86933 -13.76923,7.51581 -0.007,7.48193 7.89041,11.59644 14.25473,7.42638 z m 58.63325,-36.04998 c 17.17191,-8.1954 20.95721,-29.70508 7.59193,-43.14061 -12.87569,-12.94337 -34.79487,-9.01913 -42.70927,7.64634 -6.11553,12.87757 -0.67905,28.68071 12.093,35.15281 4.28975,2.17377 6.82467,2.6413 13.2329,2.44062 5.01299,-0.157 6.30024,-0.43297 9.79144,-2.09916 z M 155.47715,307.34949 c 2.37613,-1.69196 4.05377,-5.93991 3.50374,-8.87183 -0.92309,-4.9205 -6.31777,-8.32173 -11.13966,-7.02333 -5.98143,1.61064 -8.72933,9.02383 -5.15392,13.90407 2.79134,3.81 8.8999,4.76097 12.78984,1.99109 z m 23.17688,-62.34393 c 17.17147,-8.11316 21.05471,-29.95762 7.69962,-43.31271 -14.11889,-14.11888 -38.14412,-7.88291 -44.11949,11.45162 -4.27682,13.83852 3.63654,28.51985 17.9175,33.2416 1.52938,0.50566 4.66943,0.74318 8.49289,0.64241 5.32222,-0.14026 6.55004,-0.3884 10.00948,-2.02292 z m 112.07799,-16.30657 c 12.09411,-2.85151 22.36566,-12.6771 25.99838,-24.86961 1.62702,-5.46077 1.4939,-14.56674 -0.29265,-20.01895 -3.0741,-9.38161 -9.40346,-16.93699 -17.67014,-21.09293 -19.52091,-9.81381 -42.35778,-0.68853 -49.85367,19.92081 -1.60773,4.42031 -2.17575,14.20621 -1.11984,19.29252 2.58009,12.42825 13.67135,23.75969 26.23326,26.80135 4.38276,1.06122 12.12822,1.04582 16.70466,-0.0332 z"
     id="path476" /></svg>
