<?xml version="1.0" encoding="iso-8859-1"?>
<!-- Generator: Adobe Illustrator 19.0.0, SVG Export Plug-In . SVG Version: 6.00 Build 0)  -->
<svg version="1.1" id="Layer_1" xmlns="http://www.w3.org/2000/svg" xmlns:xlink="http://www.w3.org/1999/xlink" x="0px" y="0px"
	 viewBox="0 0 512.213 512.213" style="enable-background:new 0 0 512.213 512.213;" xml:space="preserve">
<g transform="translate(1 1)">
	<path style="fill:#FFE100;" d="M144.173,93.08v-51.2h17.067V7.747H58.84V41.88h17.067v110.933l-47.787,40.96
		c-6.827,6.827-2.56,18.773,6.827,18.773h40.96v256H58.84v34.133h392.533v-34.133h-17.067v-256h40.96
		c9.387,0,13.653-11.947,6.827-17.92L285.827,20.547c-17.067-16.213-44.373-16.213-61.44,0L144.173,93.08z"/>
	<path style="fill:#FFA800;" d="M348.973,307.267l-93.867,145.067l-94.72-145.067c-29.867-40.107-26.453-94.72,5.973-131.413l0,0
		c46.933-52.053,128.853-52.053,175.787,0l0,0C376.28,212.547,378.84,268.013,348.973,307.267"/>
	<path style="fill:#63D3FD;" d="M305.453,245.827c0-27.307-22.187-50.347-50.347-50.347c-28.16,0-50.347,22.187-50.347,50.347
		s22.187,50.347,50.347,50.347C283.267,296.173,305.453,273.987,305.453,245.827"/>
	<path d="M451.373,511.213H58.84c-5.12,0-8.533-3.413-8.533-8.533v-34.133c0-5.12,3.413-8.533,8.533-8.533h8.533V221.08H34.947
		c-7.68,0-15.36-5.12-17.92-11.947s-0.853-15.36,5.12-21.333l45.227-39.253V50.413H58.84c-5.12,0-8.533-3.413-8.533-8.533V7.747
		c0-5.12,3.413-8.533,8.533-8.533h102.4c5.12,0,8.533,3.413,8.533,8.533V41.88c0,5.12-3.413,8.533-8.533,8.533h-8.533v23.04
		l65.707-59.733c20.48-19.627,52.907-19.627,73.387,0L488.067,187.8c5.973,5.12,7.68,13.653,5.12,20.48
		c-2.56,7.68-9.387,11.947-17.92,11.947H442.84V459.16h8.533c5.12,0,8.533,3.413,8.533,8.533v34.133
		C459.907,507.8,456.493,511.213,451.373,511.213z M67.373,494.147H442.84V477.08h-8.533c-5.12,0-8.533-3.413-8.533-8.533v-256
		c0-5.12,3.413-8.533,8.533-8.533h40.96c0,0,0.853,0,1.707-0.853c0.853-0.853,0-1.707-0.853-1.707L279.853,27.373
		c-14.507-13.653-35.84-13.653-49.493,0l-80.213,73.387c-2.56,2.56-5.973,2.56-9.387,1.707c-3.413-2.56-5.12-5.973-5.12-9.387v-51.2
		c0-5.12,3.413-8.533,8.533-8.533h8.533V16.28H67.373v17.067h8.533c5.12,0,8.533,3.413,8.533,8.533v110.933
		c0,2.56-0.853,5.12-2.56,6.827L34.093,200.6c-0.853,0.853-0.853,1.707-0.853,2.56c0.853,0.853,0.853,0.853,1.707,0.853h40.96
		c5.12,0,8.533,3.413,8.533,8.533v256c0,5.12-3.413,8.533-8.533,8.533h-8.533V494.147z"/>
	<path d="M255.107,460.867c-2.56,0-5.973-1.707-6.827-4.267l-94.72-145.067c-31.573-42.667-29.013-102.4,6.827-142.507
		c24.747-27.307,58.88-42.667,94.72-42.667s69.973,15.36,94.72,41.813c35.84,40.107,38.4,99.84,6.827,143.36l-93.867,144.213
		C261.08,459.16,257.667,460.867,255.107,460.867z M255.107,144.28c-30.72,0-60.587,13.653-81.92,36.693
		c-30.72,34.133-33.28,85.333-5.973,121.173l87.893,134.827L342.147,303l0,0c27.307-36.693,24.747-87.893-5.973-122.027
		C315.693,157.933,285.827,144.28,255.107,144.28z"/>
	<path d="M255.107,304.707c-32.427,0-58.88-26.453-58.88-58.88s26.453-58.88,58.88-58.88s58.88,26.453,58.88,58.88
		S287.533,304.707,255.107,304.707z M255.107,204.867c-23.04,0-41.813,18.773-41.813,41.813c0,23.04,18.773,41.813,41.813,41.813
		c23.04,0,41.813-18.773,41.813-41.813S278.147,204.867,255.107,204.867z"/>
</g>
<g>
</g>
<g>
</g>
<g>
</g>
<g>
</g>
<g>
</g>
<g>
</g>
<g>
</g>
<g>
</g>
<g>
</g>
<g>
</g>
<g>
</g>
<g>
</g>
<g>
</g>
<g>
</g>
<g>
</g>
</svg>
